<?xml version="1.0" encoding="utf-8"?>
<!-- Generator: Adobe Illustrator 16.0.0, SVG Export Plug-In . SVG Version: 6.00 Build 0)  -->
<!DOCTYPE svg PUBLIC "-//W3C//DTD SVG 1.1//EN" "http://www.w3.org/Graphics/SVG/1.1/DTD/svg11.dtd" [
	<!ENTITY st0 "fill:#8B0021;">
]>
<svg version="1.1" id="Layer_1" xmlns="http://www.w3.org/2000/svg" xmlns:xlink="http://www.w3.org/1999/xlink" x="0px" y="0px"
	 width="404.37px" height="58.07px" viewBox="0 0 404.37 58.07" style="enable-background:new 0 0 404.37 58.07;"
	 xml:space="preserve">
<g>
	<rect x="291.88" y="1.42" style="&st0;" width="1.25" height="55.89"/>
</g>
<g>
	<path style="&st0;" d="M305.5,1.83h5.76c1.6,0,2.84,0.45,3.67,1.28c0.7,0.7,1.08,1.69,1.08,2.88v0.04c0,2.03-1.1,3.31-2.7,3.91
		l3.08,4.5h-3.24l-2.7-4.03h-2.18v4.03h-2.77V1.83z M311.08,7.96c1.35,0,2.12-0.72,2.12-1.78V6.14c0-1.19-0.83-1.8-2.18-1.8h-2.75
		v3.62H311.08z"/>
	<path style="&st0;" d="M317.57,9.67V9.63c0-2.75,1.96-5.02,4.77-5.02c3.22,0,4.7,2.5,4.7,5.24c0,0.22-0.02,0.47-0.04,0.72h-6.72
		c0.27,1.24,1.13,1.89,2.36,1.89c0.92,0,1.58-0.29,2.34-0.99l1.57,1.39c-0.9,1.12-2.2,1.8-3.94,1.8
		C319.72,14.65,317.57,12.62,317.57,9.67z M324.38,8.86c-0.16-1.22-0.88-2.05-2.04-2.05c-1.13,0-1.87,0.81-2.09,2.05H324.38z"/>
	<path style="&st0;" d="M328.18,13.16l1.17-1.8c1.04,0.76,2.14,1.15,3.04,1.15c0.79,0,1.15-0.29,1.15-0.72v-0.04
		c0-0.59-0.94-0.79-2-1.12c-1.35-0.4-2.88-1.03-2.88-2.9V7.7c0-1.96,1.58-3.06,3.53-3.06c1.22,0,2.56,0.41,3.6,1.12l-1.04,1.89
		c-0.96-0.56-1.91-0.9-2.61-0.9c-0.67,0-1.01,0.29-1.01,0.67v0.04c0,0.54,0.92,0.79,1.96,1.15c1.35,0.45,2.92,1.1,2.92,2.86v0.04
		c0,2.14-1.6,3.11-3.69,3.11C330.97,14.62,329.45,14.17,328.18,13.16z"/>
	<path style="&st0;" d="M337.37,9.67V9.63c0-2.75,1.96-5.02,4.77-5.02c3.22,0,4.7,2.5,4.7,5.24c0,0.22-0.02,0.47-0.04,0.72h-6.72
		c0.27,1.24,1.13,1.89,2.36,1.89c0.92,0,1.58-0.29,2.34-0.99l1.57,1.39c-0.9,1.12-2.2,1.8-3.94,1.8
		C339.52,14.65,337.37,12.62,337.37,9.67z M344.18,8.86c-0.16-1.22-0.88-2.05-2.04-2.05c-1.13,0-1.87,0.81-2.09,2.05H344.18z"/>
	<path style="&st0;" d="M348.17,11.67v-0.04c0-2.11,1.6-3.08,3.89-3.08c0.97,0,1.67,0.16,2.36,0.4V8.78c0-1.13-0.7-1.76-2.07-1.76
		c-1.04,0-1.78,0.2-2.66,0.52L349,5.45c1.06-0.47,2.11-0.77,3.74-0.77c1.49,0,2.57,0.4,3.26,1.08c0.72,0.72,1.04,1.78,1.04,3.08v5.6
		h-2.65v-1.04c-0.67,0.74-1.58,1.22-2.92,1.22C349.67,14.62,348.17,13.57,348.17,11.67z M354.46,11.03v-0.49
		c-0.47-0.22-1.08-0.36-1.75-0.36c-1.17,0-1.89,0.47-1.89,1.33v0.04c0,0.74,0.61,1.17,1.49,1.17
		C353.59,12.73,354.46,12.02,354.46,11.03z"/>
	<path style="&st0;" d="M359.42,4.79h2.74v1.94c0.56-1.33,1.46-2.2,3.08-2.12v2.86h-0.14c-1.82,0-2.94,1.1-2.94,3.4v3.57h-2.74V4.79
		z"/>
	<path style="&st0;" d="M366.32,9.67V9.63c0-2.75,2.11-5.02,5.06-5.02c1.82,0,2.95,0.61,3.85,1.62l-1.68,1.8
		c-0.61-0.65-1.22-1.06-2.2-1.06c-1.37,0-2.34,1.21-2.34,2.63v0.04c0,1.48,0.96,2.67,2.45,2.67c0.92,0,1.55-0.4,2.21-1.03l1.6,1.62
		c-0.94,1.03-2.02,1.76-3.94,1.76C368.44,14.65,366.32,12.42,366.32,9.67z"/>
	<path style="&st0;" d="M376.92,1.29h2.74v4.86c0.63-0.81,1.44-1.55,2.83-1.55c2.07,0,3.28,1.37,3.28,3.58v6.25h-2.74V9.05
		c0-1.3-0.61-1.96-1.66-1.96c-1.04,0-1.71,0.67-1.71,1.96v5.38h-2.74V1.29z"/>
</g>
<g>
	<path style="&st0;" d="M304.94,29.18v-0.04c0-3.58,2.7-6.52,6.57-6.52c2.38,0,3.8,0.79,4.97,1.95l-1.76,2.03
		c-0.97-0.88-1.96-1.42-3.22-1.42c-2.12,0-3.66,1.76-3.66,3.92v0.04c0,2.16,1.49,3.96,3.66,3.96c1.44,0,2.32-0.58,3.31-1.48
		l1.76,1.78c-1.29,1.39-2.74,2.25-5.17,2.25C307.69,35.66,304.94,32.8,304.94,29.18z"/>
	<path style="&st0;" d="M317.72,30.67v-0.04c0-2.77,2.23-5.02,5.24-5.02c2.99,0,5.2,2.21,5.2,4.99v0.04c0,2.77-2.23,5.02-5.24,5.02
		C319.93,35.66,317.72,33.44,317.72,30.67z M325.46,30.67v-0.04c0-1.42-1.03-2.66-2.54-2.66c-1.57,0-2.5,1.21-2.5,2.63v0.04
		c0,1.42,1.03,2.67,2.54,2.67C324.52,33.3,325.46,32.09,325.46,30.67z"/>
	<path style="&st0;" d="M330.12,25.79h2.74v1.37c0.63-0.81,1.46-1.55,2.85-1.55c1.26,0,2.21,0.56,2.72,1.53
		c0.85-0.99,1.86-1.53,3.17-1.53c2.04,0,3.26,1.22,3.26,3.55v6.28h-2.74v-5.38c0-1.3-0.58-1.96-1.6-1.96
		c-1.03,0-1.66,0.67-1.66,1.96v5.38h-2.74v-5.38c0-1.3-0.58-1.96-1.6-1.96c-1.03,0-1.66,0.67-1.66,1.96v5.38h-2.74V25.79z"/>
	<path style="&st0;" d="M347.27,25.79h2.74v1.39c0.67-0.9,1.59-1.57,3.01-1.57c2.25,0,4.39,1.76,4.39,4.99v0.04
		c0,3.22-2.11,4.99-4.39,4.99c-1.46,0-2.36-0.67-3.01-1.44v4.14h-2.74V25.79z M354.67,30.64V30.6c0-1.6-1.08-2.66-2.36-2.66
		c-1.28,0-2.34,1.06-2.34,2.66v0.04c0,1.6,1.06,2.67,2.34,2.67C353.59,33.3,354.67,32.26,354.67,30.64z"/>
	<path style="&st0;" d="M359.35,32.04v-6.25h2.74v5.38c0,1.3,0.61,1.96,1.66,1.96s1.71-0.67,1.71-1.96v-5.38h2.74v9.65h-2.74v-1.37
		c-0.63,0.81-1.44,1.55-2.83,1.55C360.56,35.62,359.35,34.25,359.35,32.04z"/>
	<path style="&st0;" d="M371.12,32.71v-4.57h-1.15v-2.34h1.15v-2.47h2.74v2.47h2.27v2.34h-2.27v4.12c0,0.63,0.27,0.94,0.88,0.94
		c0.5,0,0.96-0.13,1.35-0.34v2.2c-0.58,0.34-1.24,0.56-2.16,0.56C372.26,35.6,371.12,34.94,371.12,32.71z"/>
	<path style="&st0;" d="M378.18,22.3h2.88v2.43h-2.88V22.3z M378.25,25.79h2.74v9.65h-2.74V25.79z"/>
	<path style="&st0;" d="M383.51,25.79h2.74v1.37c0.63-0.81,1.44-1.55,2.83-1.55c2.07,0,3.28,1.37,3.28,3.58v6.25h-2.74v-5.38
		c0-1.3-0.61-1.96-1.66-1.96s-1.71,0.67-1.71,1.96v5.38h-2.74V25.79z"/>
	<path style="&st0;" d="M394.72,37.35l0.94-2.05c0.99,0.56,1.98,0.88,3.26,0.88c1.87,0,2.75-0.9,2.75-2.63v-0.47
		c-0.81,0.97-1.69,1.57-3.15,1.57c-2.25,0-4.29-1.64-4.29-4.5v-0.04c0-2.88,2.07-4.5,4.29-4.5c1.49,0,2.38,0.63,3.12,1.44v-1.26
		h2.74v7.47c0,1.73-0.41,2.99-1.22,3.8c-0.9,0.9-2.29,1.3-4.16,1.3C397.42,38.36,395.95,38,394.72,37.35z M401.67,30.15v-0.04
		c0-1.31-1.03-2.23-2.36-2.23c-1.33,0-2.34,0.92-2.34,2.23v0.04c0,1.33,1.01,2.23,2.34,2.23C400.65,32.38,401.67,31.46,401.67,30.15
		z"/>
</g>
<g>
	<path style="&st0;" d="M304.94,50.18v-0.04c0-3.58,2.7-6.52,6.57-6.52c2.38,0,3.8,0.79,4.97,1.95l-1.76,2.03
		c-0.97-0.88-1.96-1.42-3.22-1.42c-2.12,0-3.66,1.76-3.66,3.92v0.04c0,2.16,1.49,3.96,3.66,3.96c1.44,0,2.32-0.58,3.31-1.48
		l1.76,1.78c-1.29,1.39-2.74,2.25-5.17,2.25C307.69,56.66,304.94,53.8,304.94,50.18z"/>
	<path style="&st0;" d="M317.75,51.68v-0.04c0-2.75,1.96-5.02,4.77-5.02c3.22,0,4.7,2.5,4.7,5.24c0,0.22-0.02,0.47-0.04,0.72h-6.72
		c0.27,1.24,1.13,1.89,2.36,1.89c0.92,0,1.58-0.29,2.34-0.99l1.57,1.39c-0.9,1.12-2.2,1.8-3.94,1.8
		C319.9,56.66,317.75,54.63,317.75,51.68z M324.56,50.87c-0.16-1.22-0.88-2.05-2.04-2.05c-1.13,0-1.87,0.81-2.09,2.05H324.56z"/>
	<path style="&st0;" d="M329.2,46.8h2.74v1.37c0.63-0.81,1.44-1.55,2.83-1.55c2.07,0,3.28,1.37,3.28,3.58v6.25h-2.74v-5.38
		c0-1.3-0.61-1.96-1.66-1.96s-1.71,0.67-1.71,1.96v5.38h-2.74V46.8z"/>
	<path style="&st0;" d="M340.79,53.71v-4.57h-1.15V46.8h1.15v-2.47h2.74v2.47h2.27v2.34h-2.27v4.12c0,0.63,0.27,0.94,0.88,0.94
		c0.5,0,0.96-0.13,1.35-0.34v2.2c-0.58,0.34-1.24,0.56-2.16,0.56C341.93,56.61,340.79,55.94,340.79,53.71z"/>
	<path style="&st0;" d="M347.2,51.68v-0.04c0-2.75,1.96-5.02,4.77-5.02c3.22,0,4.7,2.5,4.7,5.24c0,0.22-0.02,0.47-0.04,0.72h-6.72
		c0.27,1.24,1.13,1.89,2.36,1.89c0.92,0,1.58-0.29,2.34-0.99l1.57,1.39c-0.9,1.12-2.2,1.8-3.94,1.8
		C349.34,56.66,347.2,54.63,347.2,51.68z M354.01,50.87c-0.16-1.22-0.88-2.05-2.04-2.05c-1.13,0-1.87,0.81-2.09,2.05H354.01z"/>
	<path style="&st0;" d="M358.65,46.8h2.74v1.94c0.56-1.33,1.46-2.2,3.08-2.12v2.86h-0.14c-1.82,0-2.94,1.1-2.94,3.4v3.57h-2.74V46.8
		z"/>
</g>
<g>
	<path style="&st0;" d="M15.22,13.1c-0.18,0.14,0.21,0.33,0.18,0.32c0.01,0.57-0.07,1.15,0.12,1.44c0.12,0.18,0.49,0.31,0.56,0.14
		c0.06-0.17,0.34-0.53,0.41-0.59c0.12-0.11,0.01-0.2-0.08-0.1c-0.2,0.22-0.32,0.12-0.47-0.03c-0.07-0.08-0.1-0.88-0.05-0.9
		c0,0,0.38-0.06,0.46-0.06c0.07,0,0.06-0.22-0.01-0.22c-0.11,0-0.45,0-0.46-0.05c-0.04-0.11,0.07-0.65,0.08-0.89
		c0.02-0.17-0.07-0.22-0.12-0.06C15.79,12.26,15.43,12.94,15.22,13.1 M16.21,11.07c0.22-0.02,0.57,0.11,0.96,0.08
		c0.46-0.04,0.83-0.77,0.62-1.34c-0.19-0.54-0.78-0.45-1.17-0.58c-0.37-0.1-0.52-0.34-0.12-0.61c0.47-0.31,1.05,0.19,1.1,0.29
		c0.09,0.16,0.16,0.16,0.16-0.05c0.01-0.45-0.03-0.2-0.07-0.62c-0.01-0.15-0.12-0.17-0.13-0.02c-0.01,0.15-0.19,0.1-0.32,0.1
		c-0.13,0-0.53-0.07-0.86,0.13c-0.21,0.13-0.71,0.52-0.43,1c0.16,0.28,1.1,0.5,1.34,0.66c0.24,0.16,0.29,0.56,0.06,0.75
		c-0.28,0.23-1.04,0.04-1.16-0.1c-0.15-0.18-0.21-0.32-0.25-0.52c-0.03-0.21-0.2-0.19-0.2,0c0,0.19,0.04,0.84,0.08,0.99
		c0.03,0.16,0.19,0.11,0.2-0.01C16.04,11.11,16.11,11.08,16.21,11.07 M17.29,11.69c-0.08,0.17-0.22,0.33-0.47,0.44
		c0.15,0.14,0.35,0.31,0.48,0.4c0.15-0.17,0.29-0.33,0.46-0.5C17.59,12,17.39,11.92,17.29,11.69 M14.94,11.44
		c0.16-0.13,0.28-0.35,0.34-0.4c0.12-0.1,0.02-0.21-0.08-0.11c-0.08,0.08-0.3-0.11-0.31-0.12c-0.07-0.08-0.17-1.19-0.12-1.21
		c0,0,0.69-0.09,0.78-0.09c0.07,0,0.08-0.22,0-0.22c-0.11,0-0.63,0.07-0.65,0.02c-0.03-0.12-0.1-0.51,0.07-0.85
		c0.08-0.15,0-0.29-0.06-0.14c-0.06,0.15-0.49,0.84-0.77,0.95c-0.23,0.1-0.2,0.15-0.05,0.19c0.12,0.02,0.24,0.17,0.21,0.16
		c-0.02,0.57-0.08,1.27,0.1,1.56C14.5,11.37,14.8,11.56,14.94,11.44 M13.04,12.61c-0.17,0.17-0.31,0.32-0.56,0.52
		c0.12,0.14,0.32,0.31,0.33,0.55c0.02,0.24,0.01,1.36,0.02,1.64c0.19,0,0.15,0.02,0.47,0.01c-0.03-0.19,0-1.64,0-1.85
		c0.12-0.12,0.14-0.13,0.27-0.24c0.1,0.09,0.33,0.14,0.33,0.3c0,0.16,0.05,0.84-0.01,1.1c-0.07,0.31-0.04,0.53,0.13,0.85
		c0.12-0.14,0.59-0.47,0.69-0.56c0.1-0.09,0.05-0.15-0.08-0.12c-0.14,0.03-0.16,0.06-0.16-0.03c0-0.17-0.06-0.92-0.07-1.41
		c-0.02-0.48-0.25-0.62-0.38-0.69c-0.13,0.15-0.44,0.35-0.62,0.5C13.26,13.09,13.19,12.86,13.04,12.61 M11.22,12.94
		c0.08,0.21,0.34,0.61,0.45,0.68c-0.2,0.21-0.69,0.55-0.82,0.64C10.6,13.94,10.46,13.42,11.22,12.94 M10.36,13.92
		c-0.12,0.91,0.72,1.45,1.12,1.62c0.1-0.21,0.3-0.55,0.51-0.78c0.15-0.18-0.02-0.23-0.15-0.09c-0.19,0.21-0.74,0.01-0.88-0.26
		c0.27-0.21,0.96-0.8,1.26-1.06c-0.2-0.19-0.51-0.67-0.56-0.94C11.39,12.6,10.5,12.98,10.36,13.92 M10.13,9.56
		c-0.32,0.5-0.5,1.3,0.06,1.77c0.26,0.22,0.48,0.4,1.01,0.3c0.11-0.22,0.15-0.29,0.34-0.54c-0.37,0.06-0.65-0.01-0.92-0.22
		c-0.55-0.44-0.38-1.15-0.22-1.39c0.3-0.46,0.72,0.19,0.8,0.28c0.1-0.12,0.27-0.29,0.44-0.43c-0.17-0.22-0.3-0.43-0.41-0.57
		C10.88,8.9,10.36,9.22,10.13,9.56 M12.71,8.21c-0.04-0.06-0.12-0.15-0.13-0.26c0-0.07,0.01-0.85,0.01-0.95c0-0.09-0.18-0.08-0.18,0
		c-0.01,0.14,0.01,0.37-0.11,0.57c-0.33,0.53-0.97,0.75-1.41,0.1c-0.15-0.21-0.19-0.54-0.21-0.77c-0.03-0.31,0.2-0.71,0.21-0.75
		c0.57-0.76,1.35-0.2,1.42,0.11c0.04,0.21,0.09,0.46,0.09,0.59c0,0.09,0.18,0.08,0.18-0.01c0-0.09,0-1.27,0-1.35
		c0-0.08-0.15-0.1-0.15,0c-0.01,0.18-0.11,0.2-0.25,0.16c-0.29-0.09-0.92-0.23-1.29-0.01c-0.32,0.2-0.82,0.66-0.81,1.24
		c0.01,0.95,0.36,1.03,0.77,1.29c0.38,0.23,0.91,0.08,1.39-0.06c0.19-0.05,0.21,0.07,0.31,0.21C12.69,8.52,12.82,8.39,12.71,8.21
		 M12.98,10.95c0,0.07,0,0.13,0,0.19c-0.07,0.02-0.14,0.03-0.24,0.08c-0.13-0.11-0.73-0.32-0.34-0.65c0.24,0.15,0.34,0.03,0.57-0.12
		C12.98,10.68,12.98,10.88,12.98,10.95 M12.98,10.3c-0.35,0.23-0.46,0.23-0.7-0.05c-0.12-0.14-0.11-0.41-0.05-0.51
		c0.11-0.17,0.3-0.35,0.39-0.35c0.08,0.01,0.36,0.36,0.34,0.51C12.96,9.98,12.97,10.14,12.98,10.3 M12.95,8.99
		c-0.31,0.03-0.76,0.41-0.9,0.73c-0.05,0.13,0.02,0.6,0.08,0.65c0.04,0.04,0.07,0.06,0.11,0.09c-0.21,0.2-0.4,0.36-0.39,0.66
		c0.01,0.28,0.23,0.53,0.51,0.66c0.15-0.24,0.39-0.38,0.64-0.44c0.02,0.22,0.07,0.39,0.22,0.5c0.1-0.12,0.51-0.48,0.59-0.56
		c0.09-0.08,0.02-0.19-0.08-0.08c-0.06,0.06-0.21-0.03-0.25-0.1c0-0.12,0-1.42,0.05-1.47C13.33,9.41,13.16,8.97,12.95,8.99
		 M15.23,5.83c0.12-0.12-0.01-0.21-0.12-0.11c-0.08-0.1-0.29-0.32-0.4-0.46c-0.12,0.1-0.39,0.27-0.54,0.36
		c-0.12-0.14-0.27-0.14-0.5-0.33c-0.13,0.1-0.42,0.32-0.58,0.52c0.28,0.08,0.48,0.1,0.5,0.34c0.01,0.2-0.02,1.42,0,1.64
		c0.15,0.03,0.33,0.02,0.54,0.01c0.02-0.17,0.01-1.7,0.01-1.87c0.08-0.05,0.16-0.09,0.2-0.13c0.09,0.07,0.26,0.33,0.4,0.41
		C14.83,6.13,15.11,5.96,15.23,5.83 M16.06,6.37c-0.18-0.6-0.11-0.81,0.25-1.11c0.08,0.21,0.29,0.36,0.41,0.43
		C16.51,5.9,16.19,6.27,16.06,6.37 M17.24,7.11c-0.72,0.19-1.06-0.41-1.13-0.57c0.29-0.31,0.79-0.81,1.09-1.06
		c-0.2-0.19-0.28-0.5-0.64-0.53c-0.31,0.01-1.03,0.37-1.16,1.31c-0.12,0.9,0.7,1.39,1.36,1.42c0.22,0,0.49-0.29,0.62-0.36
		C17.68,7.18,17.57,7.04,17.24,7.11 M19.27,6.02c-0.04,0.04-0.17,0.14-0.3,0.25c-0.08,0.01-0.16,0.02-0.24,0.01
		c-0.25-0.04-0.37-0.23-0.48-0.38c-0.12-0.16,0.19-0.29,0.33-0.28C18.74,5.64,19.07,5.83,19.27,6.02 M18.75,6.73
		c0.16,0.07,0.33,0.15,0.51,0.26c0.26,0.15,0.13,0.44-0.16,0.58c-0.29,0.14-0.8-0.25-0.88-0.4C18.33,7.07,18.53,6.91,18.75,6.73
		 M19.99,5.68c-0.2-0.14-0.42-0.48-0.9-0.5c-0.48-0.02-1.03,0.43-1.21,0.71c-0.24,0.37,0.05,0.7,0.36,0.95
		c-0.2,0.17-0.47,0.44-0.72,0.68c0.1,0.11,0.66,0.38,0.97,0.38c0.47-0.01,0.91-0.26,1.17-0.48c0.49-0.4,0.32-0.82-0.18-1.12
		c-0.05-0.03-0.09-0.04-0.14-0.05C19.65,6,19.92,5.77,19.99,5.68 M20.59,8.58l-0.29-0.31L20,8.54L20,8.91l0.18,0.19h0.18l0.22-0.2
		V8.58z M20.46,6.45c-0.11-0.01-0.29,0.32,0.39,0.29C20.96,6.74,21.04,6.49,20.46,6.45 M20.45,6.88c-0.12-0.01-0.3,0.21,0.39,0.29
		C20.94,7.17,21.09,6.92,20.45,6.88 M20.89,11.6l0.25-0.28c-0.29-0.05-0.29-0.04-0.44-0.18l0.01-1.35l-0.25-0.38l-0.13,0.02
		l-0.57,0.54c-0.15,0.14-0.02,0.21,0.16,0.05l0.29,0.18l0.01,1.27c0.03,0.15,0.16,0.21,0.34,0.4L20.89,11.6z M19.14,14.01
		c0.21,0.15,0.33,0.13,0.6,0.1c-0.01,0.15-0.02,0.29-0.02,0.35c0,0.07,0.03,0.12,0.04,0.17c-0.14,0.05-0.31,0.08-0.45,0.15
		C19.2,14.67,18.74,14.35,19.14,14.01 M19.76,13.96c-0.23,0-0.43-0.07-0.68-0.3c-0.05-0.04-0.09-0.34-0.04-0.43
		c0.11-0.18,0.11-0.24,0.21-0.24c0.07,0,0.54,0.29,0.52,0.44C19.78,13.55,19.77,13.76,19.76,13.96 M18.95,13.85
		c-0.2,0.22-0.36,0.46-0.36,0.76c0.01,0.29,0.1,0.58,0.39,0.71c0.25-0.19,0.58-0.42,0.89-0.48c0.15,0.19,0.39,0.32,0.53,0.43
		c0.1-0.12,0.41-0.38,0.5-0.46c0.08-0.09,0-0.21-0.09-0.09c-0.07,0.11-0.29,0.03-0.35-0.08c0-0.12-0.11-1.42-0.06-1.48
		c-0.18-0.21-0.5-0.68-0.71-0.66c-0.31,0.03-0.77,0.48-0.87,0.63c-0.08,0.11,0.02,0.65,0.08,0.7
		C18.93,13.83,18.94,13.84,18.95,13.85 M18.13,10.77c0.19,0.56,0.64,0.74,0.98,0.76c0.1-0.19,0.29-0.48,0.39-0.62
		c0.15-0.21,0-0.33-0.11-0.09c-0.08,0.18-0.52-0.02-0.68-0.17c-0.21-0.2-0.34-0.74-0.18-0.93c0.17-0.19,0.42-0.1,0.73-0.11
		c0.21-0.01,0.25-0.21,0.29-0.31c-0.1-0.05-0.25-0.14-0.45-0.26c-0.21,0.13-0.52,0.41-0.66,0.53C18.29,9.71,17.94,10.22,18.13,10.77
		 M18.01,14.83l0.25-0.28c-0.28-0.05-0.15-0.05-0.3-0.19l-0.01-1.17l-0.36-0.55l-0.14,0.02l-0.57,0.54
		c-0.15,0.13-0.02,0.2,0.16,0.05l0.38,0.2l0.01,1.24c0.03,0.15,0.16,0.19,0.35,0.38L18.01,14.83z M22.74,21.56
		c0,0,0.23-0.26,0.23-0.44c0-0.25-0.23-0.43-0.23-0.43c0.2,0.06,0.66,0.33,0.82,0.44L22.74,21.56z M24.2,21.11v-0.03
		c-0.51-0.08-0.91-0.44-1.37-0.62c-0.64-0.25-1.33,0.26-1.33,0.34c0,0.18,0.18,0.27,0.7-0.07c-0.41,0.49,0.05,0.88,0.05,0.88
		c-0.17-0.03-0.41-0.08-0.57-0.18c-0.03,0.18,0.2,0.24,0.31,0.32C22.87,22.12,23.44,21.26,24.2,21.11 M30.04,12.98
		c-0.13,0.14-0.37,0.3-0.58,0.55c0.18,0.01,0.33,0.05,0.42,0.23c0.09,0.18,0.01,0.92,0.03,1.2c0.01,0.28,0.18,0.34,0.39,0.57
		c0.21-0.06,0.81-0.31,1.01-0.45c-0.02,0.23,0.26,0.48,0.43,0.53c0.11-0.12,0.23-0.19,0.4-0.35c-0.16-0.11-0.14-0.12-0.2-0.34
		c-0.05-0.21,0.01-1,0.02-1.34c-0.13-0.2-0.33-0.43-0.55-0.59c-0.15,0.14-0.35,0.33-0.59,0.58c0.18-0.02,0.52,0.05,0.54,0.2
		c0.01,0.2,0.04,0.63,0,0.96c-0.04,0.34-0.92,0.18-0.93-0.04c-0.02-0.23,0.04-0.9,0.05-1.22C30.35,13.26,30.27,13.15,30.04,12.98
		 M30.48,10.37c0.06-0.33,0.29-0.47,0.4-0.57c0.15,0.17,0.3,0.36,0.52,0.36c0.22,0,0.44-0.1,0.51-0.19
		c-0.18-0.15-0.59-0.59-0.67-0.67c-0.21,0.12-1.11,0.6-1.18,1.15c-0.11,0.82,0.14,0.98,0.49,1.43c0.2,0.25,0.52,0.27,0.67,0.23
		c0.16-0.11,0.75-0.69,0.82-0.76c0.06-0.07-0.03-0.13-0.1-0.06c-0.07,0.07-0.04,0.1-0.14,0.11c-0.1,0.02-0.5,0.08-0.73-0.04
		C30.77,11.19,30.4,10.82,30.48,10.37 M27.97,10.28c0.02,0.55-0.26,1.13-0.56,1.39c0.52-0.14,0.59-0.46,0.88-0.84
		c0.16,0.24,0.45,0.53,0.67,0.66c0.15-0.1,0.58-0.6,0.67-0.7c-0.31-0.09-0.91-0.41-1.06-0.75c-0.12-0.25-0.09-0.37,0.03-0.58
		c0.1,0.14,0.83,0.49,1.16-0.09C29.41,9.24,29.08,9,28.98,8.8c-0.1,0.08-0.42,0.44-0.59,0.55c-0.04-0.2-0.34-0.41-0.57-0.45
		c-0.08,0.08-0.64,0.52-0.89,0.65c-0.08,0.04-0.05,0.22,0.06,0.17c0.1-0.05,0.28-0.18,0.48-0.28C27.69,9.54,27.95,9.78,27.97,10.28
		 M27.87,12.92c-0.21,0.11,0.29,0.31,0.25,0.3c-0.01,0.58-0.12,1.53,0.07,1.84c0.12,0.18,0.39,0.31,0.58,0.23
		c0.18-0.07,0.4-0.43,0.47-0.49c0.13-0.1,0.02-0.21-0.09-0.1c-0.11,0.1-0.4,0.03-0.44-0.08c-0.03-0.11-0.07-1.38-0.02-1.41
		c0,0,0.35-0.01,0.45,0c0.07,0,0.08-0.23,0.01-0.23c-0.13,0-0.41-0.03-0.43-0.08c-0.04-0.12,0.01-0.51,0.08-0.66
		c0.08-0.16-0.07-0.23-0.12-0.07C28.62,12.33,28.25,12.73,27.87,12.92 M25.84,13.3c0.12-0.19,0.2-0.23,0.29-0.23
		c0.09,0.01,0.42,0.24,0.41,0.4c0.02,0.1,0.02,0.32,0.02,0.54c-0.25,0.03-0.43,0.06-0.71-0.18C25.8,13.79,25.78,13.4,25.84,13.3
		 M25.99,14.16c0.19,0.11,0.28,0.04,0.57,0.01c0,0.18-0.01,0.35-0.01,0.44c-0.13,0.09-0.28,0.17-0.46,0.26
		C25.95,14.75,25.74,14.65,25.99,14.16 M25.76,13.98c-0.16,0.15-0.43,0.54-0.43,0.83c0,0.29,0.14,0.58,0.31,0.74
		c0.28-0.2,0.46-0.48,0.93-0.67c0.06,0.23,0.21,0.26,0.4,0.4c0.11-0.12,0.51-0.63,0.6-0.72c0.09-0.09,0.04-0.18-0.09-0.09
		c-0.13,0.09-0.21,0.03-0.42-0.2c0.01-0.13-0.01-1.16,0.04-1.22c-0.19-0.21-0.37-0.5-0.6-0.48c-0.33,0.03-0.75,0.62-0.86,0.78
		c-0.08,0.11,0,0.53,0.07,0.59C25.73,13.96,25.74,13.96,25.76,13.98 M23.83,12.02c0.01,0.28,0.11,2.68,0.08,3.02
		c-0.02,0.19,0.23,0.39,0.46,0.55c0.11-0.14,0.35-0.5,0.55-0.65c0.12-0.1,0.04-0.16-0.06-0.13c-0.18,0.09-0.36,0.02-0.38-0.19
		s-0.02-2.28,0-2.58C24.35,12.04,23.96,12.03,23.83,12.02 M23.66,10.27c0.01,0.98,0.39,1.07,0.83,1.32c0.41,0.24,1.1,0.19,1.62,0.05
		c0.2-0.06,0.3-0.07,0.3,0.1c0,0.11,0.15,0.08,0.15,0c0-0.08,0.01-0.91,0.01-1c0-0.1-0.15-0.09-0.15,0c0,0.14,0,0.18-0.13,0.38
		c-0.36,0.54-1.25,0.52-1.73-0.14c-0.16-0.23-0.31-0.53-0.12-0.59c0.19-0.06,0.76,0.06,1.14,0.1c0.23,0.01,0.75,0.07,0.82,0.11
		c0.06,0.04,0.15,0.1,0.15-0.02c0-0.12,0-0.5,0-0.61c0-0.11-0.09-0.06-0.15-0.02c-0.06,0.05-0.63,0.14-0.85,0.18
		c-0.23,0.04-0.92,0.1-1.1,0.04c-0.19-0.06-0.12-0.45,0.04-0.67c0.49-0.66,1.46-0.61,1.82-0.06c0.12,0.19,0.12,0.24,0.12,0.38
		c0,0.09,0.14,0.1,0.14,0c0.01-0.09,0.01-1.09,0.01-1.17c0-0.08-0.14-0.11-0.14,0c0,0.07-0.16,0.12-0.31,0.07
		c-0.3-0.1-1.19,0.04-1.58,0.26C24.19,9.2,23.65,9.68,23.66,10.27 M27.43,4.56c-0.18-0.02-0.78,0.03-0.99,0.07
		c-0.22,0.03-0.22,0.14-0.04,0.16c0.18,0.02,0.21,0.06,0.31,0.3c0.09,0.25-0.34,1.37-0.45,1.64c-0.12-0.19-0.58-1.22-0.58-1.36
		c0-0.1,0.2-0.2,0.29-0.23c0.17-0.05,0.17-0.17,0.04-0.2c-0.36-0.05-1.61-0.17-1.83-0.19c-0.16-0.01-0.23,0.18-0.04,0.18
		c0.2,0.01,0.41-0.06,0.63,0.28c0.25,0.37,1.05,2.13,1.24,2.87c0.09-0.16,0.89-2.52,0.93-2.77c0.06-0.25,0.23-0.48,0.46-0.55
		C27.63,4.68,27.61,4.57,27.43,4.56 M28.5,4.99l0.24-0.21V4.44l-0.32-0.32L28.1,4.4l0.01,0.39l0.2,0.2H28.5z M28.86,8.07l0.42-0.56
		c-0.3-0.05-0.43-0.11-0.64-0.36l0.01-1.39l-0.43-0.44l-0.15,0.02L27.4,5.94c-0.07,0.11,0.11,0.11,0.2-0.02l0.49,0.29l0.02,1.34
		c0.04,0.16,0.17,0.32,0.36,0.52H28.86z M31.65,5.69c-0.13,0-0.99,0.02-1.01-0.03c-0.06-0.19-0.08-0.42,0.07-0.74
		c0.07-0.16-0.07-0.23-0.12-0.07c-0.05,0.16-0.48,0.77-0.93,0.96c-0.23,0.09,0.28,0.31,0.25,0.3c0,0.59,0.08,1.47,0.2,1.82
		c0.08,0.21,0.31,0.55,0.47,0.45c0.1-0.07,0.33-0.52,0.4-0.58c0.12-0.1,0-0.28-0.1-0.17c-0.12,0.1-0.21-0.06-0.24-0.17
		c-0.04-0.1-0.14-1.4-0.09-1.42c0,0,1.01-0.13,1.11-0.13C31.72,5.92,31.72,5.69,31.65,5.69 M33.21,8.19
		c-0.14,0.01-0.26,0.05-0.44,0.13c-0.15-0.12-0.52-0.59-0.25-1.12c-0.04-0.02-0.08-0.04-0.12-0.07c0.26,0.15,0.56,0.28,0.79,0.36
		c0,0.21-0.01,0.4-0.01,0.47C33.2,8.05,33.2,8.12,33.21,8.19 M33.21,7.37c-0.27-0.1-0.79-0.35-0.99-0.52
		c-0.05-0.04-0.06-0.07,0.01-0.17c0.12-0.19,0.26-0.35,0.36-0.34c0.08,0,0.62,0.29,0.6,0.45C33.21,6.9,33.21,7.14,33.21,7.37
		 M33.53,8.77l0.54-0.61c0,0-0.24-0.19-0.38-0.38c0-0.13,0-1.35,0.05-1.41c-0.41-0.37-0.71-0.42-0.88-0.4
		c-0.33,0.05-0.67,0.49-0.78,0.63c-0.08,0.12-0.06,0.26,0,0.31c0.07,0.06,0.15,0.11,0.24,0.17c-0.02-0.01-0.03-0.02-0.05-0.02
		c-0.15,0.15-0.38,0.58-0.37,0.87c0,0.29,0.26,0.72,0.43,0.88c0.19-0.15,0.48-0.41,0.89-0.49C33.28,8.53,33.38,8.66,33.53,8.77
		 M33.55,12c-0.14-0.07-0.65-0.47-0.77-0.78c-0.15-0.42-0.15-0.88,0.28-1.15c0.34,0.13,0.73,0.47,0.77,0.78
		C33.88,11.25,33.77,11.74,33.55,12 M34.01,11.83c0.15-0.27,0.37-0.72,0.35-1.06c-0.02-0.42-0.27-1.04-0.86-1.24
		c-0.75,0.28-1.22,0.89-1.24,1.61c-0.01,0.42,0.34,1.3,1.06,1.3C33.54,12.23,33.78,11.99,34.01,11.83 M34.72,13.94
		c-0.09-0.11-0.33-0.31-0.55-0.47c-0.12,0.11-0.38,0.3-0.54,0.38c-0.12-0.14-0.28-0.33-0.53-0.53c-0.15,0.1-0.57,0.5-0.75,0.61
		c0.26,0.01,0.65,0.09,0.66,0.34c0.01,0.2-0.01,1.46,0,1.69c0.16,0.04,0.35,0.02,0.58,0c0.01-0.18,0.01-1.62,0.01-1.8
		c0.08-0.04,0.17-0.09,0.21-0.13c0.09,0.07,0.36,0.39,0.52,0.48c0.11-0.08,0.39-0.34,0.51-0.46C34.98,13.92,34.84,13.84,34.72,13.94
		 M34.72,11.29c0.1,0.03,0.27,0.06,0.46,0.07c0.11,0.01,0.08-0.18-0.01-0.22c-0.09-0.03-0.29-0.07-0.41-0.07
		C34.63,11.07,34.57,11.24,34.72,11.29 M35.18,10.71c-0.09-0.04-0.29-0.07-0.42-0.07c-0.12,0-0.19,0.18-0.04,0.22
		c0.1,0.03,0.28,0.06,0.46,0.07C35.31,10.94,35.27,10.75,35.18,10.71 M38.27,41.5c-0.24,1.21-0.65,2.34-1.36,3.38
		c-0.5,0.74-0.7-0.7-0.27-2.09C37.25,42.54,37.86,42.05,38.27,41.5 M37.59,41.74c-1.59,1.61-3.97,1.03-5.84,1.89
		c-1.7,0.64-2.93,2.25-4.71,2.66c-0.52,0.17-0.61,0.44-0.28,0.43c0.2-0.01,1.28,1.16,3.02,0.26c0.58-0.3,2.38-1.33,2.69-1.39
		c-0.98,0.96-1.47,1.81-2.34,2.31c-0.53,0.31-2.71,1.11-4.88,0.67c-0.96-0.19-1.7,0.72-1.46,0.7c0.52-0.14,1.09-0.07,1.44,0.4
		c0.63,0.51,1.54,1.14,2.33,0.2c0.26-0.31,1.51-0.98,2.68,0.24c-1.25-0.07-1.12,2.24-3.48,1.96c-0.87-0.01-2.8-2.06-3.35-1.42
		c-0.98,1.13,2.1,2.2,0.77,3.61c-1.2,1.28-2.64-1.02-2.64-1.02c0.75,0.32,2.13,0.53,1.52-0.72c-0.24-0.5-0.7-0.94-0.7-1.86
		c-0.1-0.46-2.85,3.64-4.67,1.79c-0.71-0.73-2.16-2.32-3.47-2.93c3.47-0.3,4,1.12,4.16,1.35c1.11,1.54,2.14-0.02,2.37-0.3
		c0.36-0.42,0.87-1,0.69-1.09c-1.35-0.66-2.88-0.79-4.03-0.25c2.46-3.47,4.37-0.22,4.37-0.22c0.27,0.17-0.07-2.06-2.5-2.18
		c-1.52-0.08-2.86,1.33-3.9,1.33c-0.85,0-3.43-1.79-4.04-3.39c1.5,1.15,3.42,1.82,4.61,1.09c2.25-1.38,5.08,0.7,5.21,0.45
		c-0.63-0.5-2.06-2.47-5.91-1.35c-1.5,0.88-2.13-0.66-3.05-0.68c1.56-1.43,2.65-0.7,3.19-0.66c0.13,0-0.65-0.66-1.2-0.72
		c-4.26-0.46-6.96-1.66-6.96-1.66c-0.02,0,0.36-0.88,2.19-0.25c0,0-1.64-1.03-1.63-2.36c0.05-0.82,0.44-1.7-0.17-2.38
		c2.47-0.1,0.72,3.44,2.45,4.35c0.04,0.01-0.51-0.85,0.26-1.51c0.36,1.04,1.24,1.58,1.86,1.75c0.15-0.08,0.33-0.4,0.33-0.4
		c-0.65-1.11-0.74-2.4-0.56-3.89l0.03-0.01c0.14,0.01,0.38,0.51,0.55,0.88c0.36,0.8,0.35,1.94,1.07,2.89c0.4,0.52,0.64,1.04,1,1.29
		c0.15-0.37,0.04-1,0.02-1.17c-0.08-0.6-0.45-1.66,0.55-2.59c0.47,1.39,1.1,0.99,1.19,1.65c0.12,0.93,0.08,0.78-0.01,1.5
		c0.05,0.99,0.92,1.26,1.7,1.9c1.75,0.98,2.91,1.51,3.67,2.76c0.37-2.11-5.18-2.54-4.46-6.61c-0.07-1.63,0.2-1.76-0.92-2.76
		c2.23,0.07,3.44,3.82,3.56,4.51c0.22,1.26,0.97,1.33,1.99,2.97c0.15,0.06-1.83-4.38,0.53-8.17c0,0,0.79,1.97,0.42,3.26
		c-0.23,0.78-0.02,1.64,0.03,2.13c0.04,0.5-0.1-1.8,1.58-2.99c0.1,0.87,0.92,2.21,0.15,3.66c-0.93,1.75-1,1.12-1.02,3.28
		c0.08-0.04,0.33-1.49,0.97-2.31c1.35-1.74,0.39-2.67,1.71-4.18c0.1,0.75,0.29,0.46,0.37,1.13c0.18,1.51-1.35,3.15-1.02,3.1
		c0.39-0.06,1.02-0.41,1.23-1.55c0,0,0.56,1.04,0.05,1.39c-0.93,0.63-1.13,1.31-0.98,2.07c0.75-0.92,1.77-1.94,1.6-3.25
		c0.08-0.79,0.92-1.11,1.08-2.95c0.03-0.3,0.32-0.67,0.62-0.84c-0.13,1.03,0.65,2.1-0.24,3.36c0.2,0.11,0.95-0.98,2.05-0.58
		c-2.2,0.41-1.56,2.86-3.24,3.99c-0.51,0.34-0.42,0.73-0.57,0.77c1.5-0.09,2.66-1.93,2.87-2.07c1.51-1.05,1.84-1.21,2.45-2.92
		c0.24-0.65,0.06-0.93,0.9-1.81c0.37,0.86-0.17,2.65-0.29,3.03c-0.27,0.82-1.22,1.53-1.02,1.53c4.05-1.84,4-3.07,4.97-4.39
		c0.29-0.5,1.73-1.38,2.27-1.46c-0.13,0.28-0.69,0.74-0.72,1.24c-0.05,0.92-0.34,1.48-0.79,2.22c0.25,0.32,0.74-0.61,1.23-0.14
		C38.39,40.55,38.1,41.3,37.59,41.74 M33.88,40.44C34,40,34,39.71,34.05,39.32c0.02-0.16,0.03-0.14,0.04-0.28
		c0-0.04,1.15,0.98,1.21,1.02c-0.29,0.37-0.53,0.5-0.81,0.76C34.3,40.65,33.87,40.48,33.88,40.44 M34.23,41.07
		c-0.53,0.48-0.87,0.65-0.76,0.41c0.13-0.26,0.22-0.49,0.3-0.69C33.79,40.73,34.23,41.07,34.23,41.07 M39.41,36.45
		c-0.48,0.13-1.76,0.65-2.07,1.17c0.16-2.83-0.73-5.61-1.01-6.29c-0.55-1.31,0.25,3.04,0.3,4.05c0,0.04-4.57-6.04-1.81-1.35
		c0.72,1.21,1.83,2.01,1.83,2.03c0.02,0.85-0.04,1.47-0.19,1.92c-0.28,0.23-6.23-8.13-2.94-2.34c0.41,0.72,2.79,2.89,2.77,2.94
		c-0.15,0.33-0.42,0.81-0.79,1.17c-0.06-0.07-1.37-1.06-1.38-1.12c-0.1-0.65-0.1-1.26-0.88-0.8c0,0-2.93-3.51-1.57-1.05
		c0.59,1.07,0.98,1.19,1.14,1.38c0,0-0.45,0.63-0.6,1.31c-0.06,0.27-2.54-2.83-1.57-0.88c0.31,0.62,1.45,1.3,1.44,1.35
		c-0.12,0.41-0.23,0.8-0.36,1.05c-0.16,0.32-2.34,2.11-2.33,2.11c0,0,0.43-1.41,1.35-2.11c0.53-0.4,0.53-0.31,0.88-0.54
		c-0.01-0.21-0.2-0.55-0.46-0.64c-0.32-0.11-1.35,0.08-1.35,0.08c0.1-0.53-0.35-1.67-0.35-2.93c-0.39,0.04-1.07,0.66-1.23,1.01
		c-0.12,2.08-0.56,1.46-0.97,2.96c-0.45-0.63,0.03-1.53-0.41-2.12c-0.6-0.81-0.69-1.35-0.79-2.35c0.14-0.08,0.76-0.78,0.2-2.25
		c-0.09-2.31,0.91-3.19-0.88-4.8c0.15-0.05,0.26-1.21,0.26-1.21c1.32,0.72,1.06-0.84,1.57-1.15c0.82-0.49,0.67-0.99,0.3-1.62
		c2.34,0.68-0.11,2.33,0.95,2.36c0.77,0.02,1.28-0.17,1.61-0.71c0.35-0.56-0.06-0.9,0.93-1.81c0.1-0.09,0.36-0.7-0.43-0.86
		c-0.17-0.04,0-0.73,0-0.73c-0.63,0.55-0.83,1.32-1.84,0.83c-0.52-0.25-0.85,0-1.07,0.1c0,0-0.11-0.43,0.32-0.58
		c1.11-0.38,1.38-0.84,1.32-1.08c-0.15-0.59-0.2,0-0.16-0.62c0.01-0.25,0.29-0.58,0.53-0.87c0.75-0.93,1.28-0.58,1.48-0.5
		c0.44-0.35,0.51-0.32,0.92-0.49c0.7-0.28,2.2,0.19,3.05,0.59c0.41,0.19,0.9,0.3,1.37,0.2c0,0.25-0.18,0.39-0.35,0.44
		c-0.26,0.08-0.58,0-0.56,0.2c0.01,0.12,0.37,0.14,0.6,0.2c1.25,0.35,2.87,1.5,1.8,1.26c-0.12-0.03,0.77,0.68,1.44,1.61l2.38,2.38
		c-0.11,0.13-0.95,0.01-3.59-2.53c-0.38,0.34,3.22,3.13,4.7,6.08c-0.13,0.09-1.98-0.6-2.64-1.31c-1.03-1.09-2.21-3.86-2.69-3.46
		c-0.06,0.02,1.95,3.24,2.94,5.15c0.5,0.96,0.92,2.35,0.95,3.39c0.16,5.14-0.59,4.74-0.59,4.74c-1.17-4.05-1.72-8.75-3.43-10.92
		C36.79,27.59,39.3,32.25,39.41,36.45 M41.26,8.92c-0.01-0.08-0.03-0.2-0.05-0.37c-0.04-0.27-0.78-0.42-1.3-0.18
		c-0.73,0.33-2.57,1.41-3.24,1.2V6.91c1.65,0.74,2.3,0.07,2.83,0.07c1.63,0,1.71,1.56,1.71,1.56C41.23,8.72,41.25,8.84,41.26,8.92
		 M39.56,12.55c1.44-0.21,1.65,1.53,1.65,1.53h0c-0.35-0.29-1.06-0.42-1.54-0.1c-1.6,1.06-3.05,1.07-3.05,1.07v-2.66
		C36.62,12.39,36.92,12.95,39.56,12.55 M36.13,17.95c-2.6,0.18-8-1.34-9.38-1.34c-2.83,0-4.2,1.14-4.2,1.14s0-13.21,0-13.69
		c0,0,3.72-1.79,6.43-0.77C32.3,4.55,36.13,4,36.13,4V17.95z M25.35,20.01c0.09,0.53-0.39,0.66-0.39,0.66
		c0.74,0.18,1.1-0.28,1.24-0.56c0.29,1.22-0.91,1.29-1.28,1.36c0,0,0.61,0.18,0.64,0.59c0.08,1.03,0.73,0.94,0.86,0.86
		c-0.02,0.12-0.22,0.75-0.95,0.19c-0.12,0.12,0.2,0.32,0.26,0.83c0.08,0.65,0.06,1.25,0.79,1.64c-0.45,0.36-0.97-0.58-1.02-0.47
		c-0.05,0.13,0.62,0.47-0.12,2.26c-0.34-0.2-0.15-0.16-0.54-0.64c-0.3-0.26-0.42-0.32-0.17,0.11c0.44,0.56,0.54,1.84,0.39,2.18
		c-0.36-0.16-0.27-0.46-0.69-0.86c-0.04,0.17,0.13,1.02,0.57,1.42c0.76,0.7,1.02,1.55,1.04,1.72c0.06,0.64-0.13,1.48-0.21,2.3
		c-0.36-0.05-0.67-1.11-0.76-1.05c-0.11,0.07,0.04,1.04,0.73,1.69c0.33,1,0.2,1.53,0.11,1.57c-0.12,0.05-0.49-1.02-0.69-0.83
		c0.98,2.55,0.29,3.43,0.04,4.22c-0.2-0.8-0.3-1.41-0.56-2.32c-0.53,0.43-0.66,1.06-1.31,1.64c0-1.04-0.58-3.55-1.05-4.13
		c-0.02-0.03-0.84,2.25-1.21,3.26c-0.48,1.31-0.56,2.95,0,4.23c-1.2-1.76-1.33-5.03-0.29-5.47c0.09-0.23-0.06-1-0.29-0.91
		c-0.07,0.38-0.02,0.7-0.33,1.07c-0.8-0.24-0.43-1.24-0.36-1.57c1.03-1.27,0.39-1.57,0.34-1.53c-0.11,0.29-0.21,0.65-0.52,0.78
		c-0.66-1.17-0.24-3.01,1.02-4.38c0.05-0.51-0.56,0.38-0.96,0.35c-0.1-0.99,0.24-2.7,2.02-2.76c-0.34-0.1-0.52-0.17-0.6-0.46
		c0.54-0.08,2.22-0.21,1.95-1.58c-0.16,0.17-0.21,0.41-0.65,0.69c-0.3,0.18-0.62,0.2-0.79-0.07c0.78-0.27,0.52-1.24-0.5-0.96
		c-0.31,0.09-0.77-0.25-0.79-0.62c0.23,0.23,0.69,0.06,0.95-0.12c1.15-0.77,1.85,0.34,2,0.58c0.05,0,0.52-1.11-1.11-1.41
		c-0.14-0.39-0.51-1.08-1.62-0.99c-0.37-1.32-1.47-0.67-1.43-0.07c-1.17-0.89,0.02-2.01,0.49-2.18c0.33,0.03,0.26,1.1,0.83,0.92
		c0.14-0.04-0.45-0.74-0.22-1.05c0.53-0.31,0.52,0.4,0.78,0.13c0.13-0.46,0.65-0.72,1.07-0.77C23.27,19.33,24.2,20.68,25.35,20.01
		 M21.93,17.74c0,0-1.77-0.98-3.84-1.12c-2-0.14-6.05,1.51-9.15,1.29V3.88c0,0,3.54,0.48,5-0.09c4.95-1.96,7.99,0.23,7.99,0.23
		V17.74z M8.31,14.8H6.62v-1.7h1.69V14.8z M8.31,8.87H6.62v-1.7h1.69V8.87z M4.64,15.29c-1.98,0-1.98-2.98,0-2.98
		C6.54,12.32,6.56,15.29,4.64,15.29 M4.64,9.34c-1.93,0-1.89-2.98,0-2.98C6.54,6.36,6.54,9.34,4.64,9.34 M17.39,23.26
		c-0.35-0.62,0.42-1.21,0.42-1.21c-0.02,1.74,2.14,0.55,3.27,1.1c0.27,0.13,0.46,0.37,0.57,0.63
		C20.44,22.91,18.19,24.67,17.39,23.26 M11.53,38c0.01,0.6-0.03,1.04,0.14,1.65c0.27,0.92,0.14,0.63-0.24,0.32
		c-0.3-0.34-0.58-0.62-0.72-1.02C10.68,38.67,10.9,38.65,11.53,38 M7.17,25.69l-0.03-0.03c-0.04,0-2.82,1.8-4.62,0.94
		c1.34-0.76,6-3.8,7.27-4.66c0.6,0.13,0.84-0.09,1.04-0.23c-0.49,0.03-2.1,0.29-1.28-1.19c0.31,1.33,2.57,0.11,3.39-0.09
		c2.26-0.54,2.25,1.95,2.05,2.98c-0.07,0.38,0.69,0.65,1.07,0.6c-0.65,1.64-1.75,0.09-1.89,0.72c-0.05,0.25-0.79,0.45-0.79,1.08
		c0.01,0.86,0.33,0.39,0.36,1.06c0.03,0.65-0.27,0.14-0.2,0.84c0.11,1.11,1.9-0.15,2.64,0.15c0.37,0.15,0.61,0.49,0.98,0.42
		c0.1-0.09,0.06-0.51,0.04-0.66c-0.04-0.35-0.67-0.39-0.97-0.88c-0.26-0.42,0.29-1.68,0.59-2.06c0.43,2.09,2.33,1.43,2.61,3.63
		c0.18,0.62-0.65,1.31,0.02,2.32c-0.5,0.5-1.1,2.88-0.05,3.99c-0.18,0.5-0.41,1.67,0.52,2.35c-0.31,0.69-0.24,1.53,0.02,2.39
		c-0.58,0-0.47-3.36-3.96-3.46c-0.08-0.03-0.1,0.38,0,0.56c0.42,0.76,0.98,0.71,0.86,2.49c-0.04,0.61-0.39-0.11-0.57-0.27
		c-0.42-0.38-0.75-0.44-0.93-1.69c-1.42,1.14-1.28,2.53-1.19,3.23c0,0-0.31-0.88-0.67-1.78c-0.02-0.05,1.44-1.85,1.67-2.28
		c2.94-5.45-1.9,1.76-1.91,1.74c-0.26-0.62-0.49-1.16-0.64-1.33c0.04-0.08,0.85-1,1.21-1.78c2.28-4.87-1.35,1.62-1.48,1.5
		c-0.27-0.25-0.5-0.57-0.67-0.46c-0.04,0.75-0.22,0.65-0.17,1.41c-0.38,0.52-1.19,1.34-1.76,1.75c0,0-0.14-1.35-0.1-1.4
		c0.29-0.36,1.41-1.59,1.64-1.96c3.73-6.02-1.75,1.45-1.76,1.39c-0.04-0.24-0.34-0.63-0.66-0.97c0,0,1.21-1.69,1.51-2.32
		c2.27-4.8-1.83,2.13-1.87,2.1c-0.1-0.05-0.11-0.05-0.22-0.09c-0.11-0.04,0.12-1.38,0.28-2.19c0.31-1.6-0.52-0.31-0.74,2.22
		c-0.21,0.03-0.72,0.09-0.92,0.27c0.12,0.68,0.28,0.16,0.56,0.81c0.33,0.78-0.46,2.05,0.23,2.99c0.27,0.36,0.28,0.3,0.23,0.54
		c-0.42-0.03-0.68-0.04-0.95,0.34c-0.52-2.43-0.5-3.59-0.38-6.06c0.05-1.12,0.41-2.82,0.25-2.85c-0.16-0.03-2.63,6.51-3.23,7.8
		c-1.04-0.36,0.65-6.03,2.8-8.75c0.2-0.87-1.13,0.88-1.92,1.58C3.73,33.06,2.8,33.89,1.8,33.6c1.29-1.4,4.25-4.02,4.58-4.68
		c0.28-0.56-2.02,1.75-4.44,0.89C3.5,28.95,7.16,27.03,7.17,25.69 M7.14,41.63c0.4,0.28,0.88,0.41,1.32,0.6
		c0.54,1.46,0.01,2.88-0.29,2.29C7.64,43.48,7.43,42.62,7.14,41.63 M44.48,33.54l0-32.42C19.13-1.4,0,1.12,0,1.12s0,32.42,0,32.43
		C2.02,55.52,22.05,58.1,22.24,58.07C25.82,57.4,42.62,53.93,44.48,33.54 M56.26,41.39c0,6,2.81,10.24,6.43,12.8
		c3.31,2.28,7.2,3.12,11.28,3.12c2.9,0,6.16-0.7,7.16-1.07c0.5-0.19,1.04-0.37,1.58-0.47c0.68-0.88,1.86-3.96,2.17-6.38
		c-0.18-0.33-0.86-0.42-1.18-0.19c-1.04,2.75-3.62,6.66-9.47,6.66c-7.43,0-13.45-5.4-13.45-15.17c0-9.63,5.89-14.15,12.82-14.15
		c6.57,0,8.61,3.63,9.29,6.8c0.32,0.28,1,0.23,1.22-0.09c-0.36-2.84-0.59-5.77-0.63-6.84c-0.41,0.05-0.72-0.05-1.27-0.19
		c-2.13-0.6-5.57-1.12-8.02-1.12c-4.71,0-8.92,1.3-12.23,3.95C58.53,31.8,56.26,36.23,56.26,41.39 M69.12,1.08l0.01-0.05l-0.02-0.05
		c-0.07-0.15-0.28-0.16-0.35-0.16c-0.05,0-0.12,0-0.18,0.03l-0.05,0.02l-0.03,0.04c-0.24,0.43-0.34,0.47-1.35,0.47h-7.8
		c-0.84,0-1.22-0.04-1.3-0.48l-0.01-0.04l-0.03-0.03c-0.05-0.05-0.14-0.08-0.26-0.08c-0.04,0-0.2,0-0.28,0.06l-0.05,0.04L57.42,0.9
		c-0.13,0.77-0.41,2-0.71,2.87l-0.02,0.06l0.03,0.06c0.11,0.23,0.5,0.35,0.71,0.19l0.03-0.02l0.02-0.04
		c0.19-0.45,0.37-0.87,0.81-1.29c0.42-0.39,1.36-0.44,2.22-0.44h1.04c0.42,0,0.42,0,0.42,0.47v8.67c0,2.1-0.12,2.19-1.04,2.28
		l-0.68,0.06l-0.06,0.02c-0.11,0.07-0.17,0.21-0.17,0.39c0.01,0.13,0.06,0.29,0.18,0.36l0.03,0.02l0.04,0
		c1.16-0.04,1.85-0.06,2.62-0.06c0.74,0,1.35,0.02,2.47,0.06l0.04,0l0.03-0.02c0.12-0.06,0.18-0.24,0.18-0.38
		c0.01-0.17-0.04-0.3-0.13-0.36l-0.67-0.08c-0.94-0.08-1-0.21-1-2.28V2.73c0-0.2,0-0.39,0.03-0.42c0.03-0.03,0.24-0.03,0.37-0.03
		h1.34c1.01,0,1.7,0.15,2.1,0.46c0.18,0.13,0.33,0.62,0.41,1.31l0,0.04l0.03,0.03c0.07,0.09,0.2,0.14,0.34,0.14
		c0.18,0,0.33-0.08,0.39-0.21l0.02-0.04l0-0.04C68.78,3.41,68.92,1.85,69.12,1.08 M84.64,11.42V4.44c0-2.07,0.06-2.2,1-2.3l0.4-0.04
		l0.07-0.02c0.09-0.06,0.14-0.2,0.13-0.37c0-0.07-0.03-0.3-0.19-0.38l-0.03-0.02l-0.04,0c-0.91,0.04-1.54,0.06-2.22,0.06
		c-0.82,0-1.48-0.02-2.28-0.06l-0.04,0l-0.03,0.02c-0.16,0.08-0.18,0.31-0.19,0.37c-0.01,0.17,0.04,0.3,0.13,0.37l0.42,0.06
		c0.96,0.1,1.02,0.23,1.02,2.3v2.23c0,0.47,0,0.47-0.8,0.47h-5.4c-0.8,0-0.8,0-0.8-0.47V4.44c0-2.07,0.06-2.2,1-2.3l0.36-0.04
		l0.06-0.02c0.09-0.07,0.14-0.2,0.13-0.37c0-0.07-0.03-0.29-0.19-0.37l-0.03-0.02l-0.04,0c-0.86,0.04-1.49,0.06-2.18,0.06
		c-0.49,0-0.92-0.01-1.39-0.03c-0.3-0.01-0.62-0.02-0.98-0.03l-0.04,0l-0.03,0.02c-0.16,0.08-0.18,0.3-0.19,0.37
		c-0.01,0.17,0.04,0.3,0.13,0.37l0.03,0.02l0.53,0.04c0.83,0.07,0.98,0.24,0.98,2.3v6.98c0,2.02-0.04,2.1-0.98,2.28l-0.36,0.07
		l-0.03,0.03c-0.11,0.11-0.12,0.29-0.1,0.42c0.02,0.14,0.09,0.25,0.18,0.3l0.03,0.02l0.04,0c0.26-0.01,0.51-0.02,0.75-0.02
		c0.45-0.02,0.91-0.03,1.43-0.03c0.71,0,1.31,0.02,2.39,0.06l0.04,0l0.03-0.02c0.12-0.06,0.18-0.24,0.18-0.38
		c0.01-0.17-0.04-0.3-0.13-0.36l-0.61-0.08c-0.9-0.1-1.02-0.19-1.02-2.28V8.68c0-0.47,0-0.47,0.8-0.47H82c0.8,0,0.8,0,0.8,0.47v2.74
		c0,2.06-0.02,2.11-1.03,2.28l-0.41,0.06l-0.03,0.03c-0.11,0.11-0.12,0.29-0.1,0.42c0.02,0.14,0.09,0.25,0.18,0.3l0.03,0.02l0.04,0
		c0.9-0.04,1.56-0.06,2.28-0.06c0.74,0,1.4,0.02,2.28,0.06l0.04,0l0.03-0.02c0.16-0.08,0.18-0.31,0.19-0.37
		c0.01-0.17-0.04-0.3-0.13-0.37l-0.51-0.08C84.68,13.57,84.64,13.47,84.64,11.42 M100.41,11.72l0.01-0.05l-0.02-0.04
		c-0.08-0.19-0.28-0.27-0.44-0.27c-0.09,0-0.18,0.03-0.24,0.07l-0.05,0.06c-0.54,1.11-1.03,1.67-1.27,1.81
		c-0.41,0.21-0.98,0.28-2.35,0.28c-1.57,0-1.98-0.19-2.18-0.4c-0.27-0.29-0.32-0.92-0.32-1.92V8.53c0-0.38,0-0.38,0.48-0.38h1.1
		c0.66,0,1.15,0.02,1.42,0.09c0.26,0.07,0.4,0.24,0.48,0.63l0.17,0.75l0.03,0.06c0.07,0.09,0.2,0.14,0.35,0.14
		c0.17,0,0.31-0.07,0.38-0.18l0.02-0.03V9.57c0-0.19-0.01-0.44-0.03-0.72c-0.02-0.35-0.04-0.76-0.04-1.14
		c0-0.41,0.02-0.82,0.04-1.19c0.02-0.3,0.03-0.56,0.03-0.77V5.71l-0.02-0.04c-0.06-0.11-0.2-0.18-0.38-0.18
		c-0.15,0-0.28,0.05-0.35,0.14L97.03,6.5c-0.09,0.44-0.19,0.51-0.36,0.57c-0.2,0.07-0.77,0.11-1.56,0.11h-1.1
		c-0.48,0-0.48,0-0.48-0.39V2.9c0-0.63,0-0.63,0.42-0.63h1.36c0.8,0,1.41,0.02,1.8,0.11c0.86,0.22,1.03,0.78,1.29,1.63l0.04,0.12
		l0.03,0.05c0.06,0.08,0.17,0.12,0.31,0.12c0.13,0,0.31-0.05,0.4-0.17l0.03-0.04L99.19,3.8C99.09,2.67,99,1.71,98.9,1.42l-0.04-0.13
		l-0.13,0.03c-0.21,0.05-1.38,0.05-2.51,0.05h-3.55c-0.73,0-1.35-0.02-2.22-0.06l-0.04,0l-0.03,0.02c-0.16,0.08-0.18,0.31-0.19,0.37
		c-0.01,0.17,0.04,0.3,0.13,0.37l0.37,0.06c0.97,0.12,1.02,0.25,1.02,2.3v6.98c0,2.1-0.12,2.19-1.04,2.28l-0.67,0.06l-0.04,0.04
		c-0.11,0.11-0.12,0.29-0.1,0.42c0.02,0.14,0.09,0.25,0.18,0.3l0.03,0.02l0.04,0c1.09-0.04,1.75-0.06,2.56-0.06h1.7
		c1.65,0,3.3,0.02,5.06,0.06l0.09,0l0.04-0.09C99.8,13.91,100.28,12.4,100.41,11.72 M102.24,26.87c0.27-0.19,0.18-1.02-0.09-1.16
		c-1.95,0.09-3.49,0.14-5.25,0.14c-1.95,0-3.49-0.09-5.71-0.14c-0.27,0.14-0.36,0.98-0.09,1.16l1.18,0.09
		c2.36,0.19,2.67,0.98,2.67,5.86v16.76c0,4.89-0.09,5.35-2.63,5.82l-0.77,0.14c-0.27,0.28-0.18,1.02,0.09,1.16
		c1.77-0.05,3.31-0.14,5.26-0.14c1.77,0,3.31,0.05,5.75,0.14c0.27-0.14,0.36-0.98,0.09-1.16l-1.31-0.14
		c-2.54-0.28-2.76-0.93-2.76-5.82v-6.56c0-1.4,0.09-1.49,2.26-1.49h12.96c2.17,0,2.27,0.09,2.27,1.49v6.56c0,4.89,0,5.35-2.76,5.82
		l-0.86,0.14c-0.27,0.28-0.18,1.02,0.09,1.16c1.99-0.09,3.62-0.14,5.48-0.14c1.77,0,3.31,0.05,5.48,0.14
		c0.27-0.14,0.36-0.98,0.09-1.16l-1.09-0.14c-2.63-0.33-2.72-0.93-2.72-5.82V32.83c0-4.89,0.09-5.59,2.72-5.86l0.95-0.09
		c0.27-0.19,0.18-1.02-0.09-1.16c-2.04,0.09-3.58,0.14-5.35,0.14c-1.86,0-3.4-0.05-5.48-0.14c-0.27,0.14-0.36,0.98-0.09,1.16
		l0.86,0.09c2.67,0.28,2.76,0.98,2.76,5.86v5.35c0,1.44-0.09,1.49-2.27,1.49h-12.96c-2.17,0-2.26-0.05-2.26-1.49v-5.35
		c0-4.89,0.09-5.59,2.72-5.86L102.24,26.87z M123.94,2.03c0.08-0.1,0.12-0.26,0.1-0.41c-0.02-0.12-0.08-0.22-0.17-0.28l-0.04-0.02
		l-0.05,0c-0.66,0.04-1.17,0.06-1.97,0.06c-0.72,0-1.42-0.02-2.14-0.06l-0.05,0l-0.04,0.03c-0.09,0.06-0.15,0.17-0.17,0.3
		c-0.02,0.15,0.02,0.29,0.1,0.38l0.04,0.05l0.53,0.04c0.43,0.04,0.73,0.16,0.83,0.33c0.22,0.4,0.34,1.8,0.34,3.94v2.23
		c0,2.29-0.63,5.01-3.63,5.01c-2.51,0-3.69-1.6-3.69-5.03V4.42c0-2.06,0.07-2.21,1-2.3l0.49-0.04l0.03-0.02
		c0.1-0.06,0.14-0.19,0.13-0.36c-0.01-0.14-0.06-0.3-0.19-0.37l-0.03-0.02l-0.04,0c-0.9,0.04-1.53,0.06-2.31,0.06
		c-0.77,0-1.44-0.02-2.33-0.06l-0.04,0l-0.03,0.02c-0.12,0.06-0.18,0.23-0.19,0.36c-0.01,0.16,0.04,0.29,0.13,0.36l0.03,0.02
		l0.51,0.04c0.93,0.08,1,0.23,1,2.3v4.58c0,2.34,0.47,3.79,1.52,4.69c0.83,0.73,2.05,1.1,3.62,1.1c1.49,0,2.91-0.56,3.71-1.46
		c0.92-1.01,1.36-2.56,1.36-4.74V6.39c0-0.98,0-3.29,0.25-3.89c0.09-0.2,0.41-0.34,0.82-0.38l0.51-0.04L123.94,2.03z M140.86,2.06
		c0.09-0.09,0.14-0.25,0.12-0.4c-0.02-0.14-0.08-0.25-0.18-0.32l-0.04-0.03l-0.05,0c-0.62,0.04-1.11,0.06-1.94,0.06
		c-0.67,0-1.29-0.02-2.22-0.06l-0.03,0l-0.03,0.01c-0.11,0.04-0.19,0.15-0.21,0.29c-0.03,0.17,0.02,0.35,0.13,0.45l0.03,0.03
		l0.36,0.04c0.65,0.08,0.98,0.18,1.06,0.32c0.23,0.37,0.35,1.8,0.35,3.93v4.15c0,0.19,0,0.41-0.01,0.55
		c-0.65-0.69-1.34-1.48-2.19-2.46l-2.62-3.03c-1.87-2.15-2.94-3.56-3.18-4.2l-0.04-0.11l-0.11,0.02c-0.23,0.04-0.54,0.05-0.85,0.05
		c-0.33,0-1.33,0-2.12-0.06l-0.04,0l-0.04,0.02c-0.1,0.05-0.17,0.16-0.19,0.29c-0.03,0.16,0.02,0.33,0.11,0.43l0.04,0.04l0.37,0.04
		c0.5,0.06,0.88,0.21,1.08,0.42c0.35,0.4,0.38,0.75,0.38,1.3l0,5.78c0,0.94,0,3.13-0.23,3.76c-0.04,0.1-0.21,0.23-0.72,0.3
		l-0.56,0.06l-0.04,0.04c-0.08,0.09-0.13,0.22-0.12,0.37c0.01,0.15,0.07,0.27,0.17,0.34l0.04,0.03l0.05,0
		c0.66-0.04,1.16-0.06,1.96-0.06c0.64,0,1.28,0.02,2.2,0.06l0.05,0l0.04-0.03c0.09-0.06,0.15-0.17,0.17-0.29
		c0.02-0.14-0.01-0.29-0.1-0.4l-0.04-0.05l-0.65-0.06c-0.45-0.04-0.77-0.15-0.85-0.29c-0.2-0.37-0.32-1.81-0.32-3.94V5.23
		c0-0.35,0.01-0.72,0.04-0.98c0.3,0.34,0.8,0.95,1.25,1.5c0.31,0.38,0.59,0.72,0.78,0.94l4.38,5.12c1.46,1.7,2.15,2.55,2.41,2.92
		l0.04,0.06h0.08c0.25,0,0.43-0.12,0.5-0.32l0.01-0.03l0-0.03c-0.03-0.23-0.06-1-0.06-3.38v-4.9c0-0.99-0.01-3.06,0.27-3.67
		c0.02-0.05,0.25-0.21,0.95-0.33l0.31-0.05L140.86,2.06z M138.52,49.49V32.92c0-4.93,0.09-5.72,2.76-5.96l1.13-0.09
		c0.27-0.19,0.18-1.02-0.09-1.16c-2.26,0.09-3.8,0.14-5.62,0.14c-1.9,0-3.44-0.05-5.71-0.14c-0.27,0.14-0.36,0.98-0.09,1.16
		l1.13,0.09c2.67,0.23,2.76,1.02,2.76,5.96v16.57c0,4.93-0.09,5.58-2.76,5.91l-1.13,0.14c-0.27,0.28-0.18,1.02,0.09,1.16
		c2.27-0.09,3.81-0.14,5.71-0.14c1.81,0,3.35,0.05,5.62,0.14c0.27-0.14,0.36-0.98,0.09-1.16l-1.13-0.14
		C138.61,55.07,138.52,54.42,138.52,49.49 M148,11.38v-6.9c0-2.1,0.07-2.25,1.02-2.33l0.51-0.04l0.03-0.02
		c0.1-0.07,0.14-0.2,0.13-0.37c0-0.07-0.03-0.3-0.19-0.37l-0.03-0.02l-0.04,0c-0.89,0.04-1.56,0.06-2.33,0.06
		c-0.81,0-1.46-0.02-2.37-0.06l-0.04,0l-0.03,0.02c-0.16,0.08-0.18,0.31-0.19,0.38c-0.01,0.17,0.04,0.3,0.13,0.37l0.03,0.02
		l0.51,0.04c0.95,0.08,1.02,0.24,1.02,2.33v6.9c0,2.09-0.05,2.2-1.02,2.32l-0.52,0.06l-0.03,0.04c-0.11,0.11-0.12,0.29-0.1,0.42
		c0.02,0.14,0.09,0.25,0.18,0.3l0.03,0.02l0.04,0c0.96-0.04,1.59-0.06,2.37-0.06c0.75,0,1.4,0.02,2.33,0.06l0.04,0l0.03-0.02
		c0.16-0.08,0.18-0.31,0.19-0.38c0.01-0.17-0.04-0.3-0.13-0.37l-0.53-0.08C148.04,13.57,148,13.46,148,11.38 M153.79,29.06
		c-3.44,2.75-5.71,7.17-5.71,12.33c0,6,2.81,10.24,6.43,12.8c3.31,2.28,7.2,3.12,11.28,3.12c2.9,0,6.16-0.7,7.16-1.07
		c0.5-0.19,1.04-0.37,1.58-0.47c0.68-0.88,1.86-3.96,2.18-6.38c-0.18-0.33-0.86-0.42-1.18-0.19c-1.04,2.75-3.62,6.66-9.47,6.66
		c-7.43,0-13.46-5.4-13.46-15.17c0-9.63,5.89-14.15,12.82-14.15c6.57,0,8.61,3.63,9.29,6.8c0.32,0.28,1,0.23,1.22-0.09
		c-0.36-2.84-0.59-5.77-0.63-6.84c-0.41,0.05-0.72-0.05-1.27-0.19c-2.13-0.6-5.57-1.12-8.02-1.12
		C161.31,25.1,157.09,26.4,153.79,29.06 M166.11,2.06c0.1-0.11,0.12-0.29,0.1-0.42c-0.02-0.14-0.08-0.25-0.17-0.3L166,1.32l-0.04,0
		c-0.63,0.04-1.21,0.06-1.82,0.06c-0.74,0-1.45-0.02-1.95-0.06l-0.04,0l-0.04,0.02c-0.1,0.06-0.18,0.19-0.19,0.34
		c-0.02,0.16,0.03,0.3,0.13,0.38l0.03,0.03l0.38,0.04c0.66,0.08,0.72,0.22,0.72,0.22c0,0.13-0.02,0.32-0.16,0.7
		c-0.33,0.84-1.23,3.06-1.75,4.34c-0.14,0.33-0.32,0.76-0.51,1.23c-0.36,0.87-0.79,1.93-1.16,2.77c-0.89-2.11-1.72-4.22-2.55-6.38
		c-0.55-1.39-0.87-2.41-0.93-2.66c0.03-0.06,0.19-0.15,0.76-0.22l0.32-0.04l0.03-0.03c0.1-0.08,0.15-0.23,0.13-0.38
		c-0.01-0.15-0.08-0.28-0.19-0.34l-0.04-0.02l-0.04,0c-0.84,0.04-1.5,0.06-2.28,0.06c-0.79,0-1.39-0.02-1.95-0.06l-0.05,0
		l-0.04,0.03c-0.11,0.07-0.18,0.2-0.19,0.35c-0.01,0.15,0.04,0.29,0.14,0.37l0.04,0.03l0.38,0.04c0.73,0.09,0.98,0.43,1.41,1.5
		l3.32,8.42c0.4,1.01,0.68,1.87,0.86,2.56l0.02,0.07l0.07,0.03c0.11,0.05,0.22,0.07,0.34,0.07c0.11,0,0.21-0.03,0.29-0.08l0.04-0.03
		l0.02-0.05c0.32-1.04,1.23-3.33,1.96-5.05l1.02-2.38c0.88-2.04,1.6-3.58,2.1-4.44c0.24-0.4,0.49-0.58,0.87-0.61l0.62-0.04
		L166.11,2.06z M179.06,11.72l0.01-0.05l-0.02-0.04c-0.08-0.19-0.28-0.27-0.44-0.27c-0.09,0-0.18,0.03-0.24,0.07l-0.04,0.06
		c-0.54,1.11-1.03,1.67-1.28,1.81c-0.41,0.21-0.98,0.28-2.35,0.28c-1.57,0-1.98-0.19-2.18-0.4c-0.27-0.29-0.32-0.92-0.32-1.92V8.53
		c0-0.38,0-0.38,0.48-0.38h1.1c0.66,0,1.15,0.02,1.42,0.09c0.26,0.07,0.4,0.24,0.48,0.63l0.17,0.75l0.03,0.06
		c0.07,0.09,0.2,0.14,0.35,0.14c0.17,0,0.31-0.07,0.38-0.18l0.02-0.03V9.57c0-0.19-0.02-0.44-0.03-0.72
		c-0.02-0.35-0.05-0.76-0.05-1.14c0-0.41,0.02-0.82,0.04-1.19c0.02-0.3,0.03-0.56,0.03-0.77V5.71l-0.02-0.04
		c-0.06-0.11-0.2-0.18-0.38-0.18c-0.15,0-0.28,0.05-0.35,0.14l-0.18,0.86c-0.08,0.44-0.19,0.51-0.36,0.57
		c-0.2,0.07-0.77,0.11-1.56,0.11h-1.1c-0.48,0-0.48,0-0.48-0.39V2.9c0-0.63,0-0.63,0.42-0.63h1.36c0.8,0,1.41,0.02,1.8,0.11
		c0.86,0.22,1.03,0.78,1.29,1.63l0.04,0.12l0.03,0.05c0.06,0.08,0.17,0.12,0.31,0.12c0.13,0,0.31-0.05,0.4-0.17l0.03-0.04
		l-0.02-0.29c-0.1-1.13-0.19-2.09-0.29-2.38l-0.04-0.13l-0.13,0.03c-0.21,0.05-1.38,0.05-2.51,0.05h-3.55
		c-0.73,0-1.35-0.02-2.22-0.06l-0.04,0l-0.03,0.02c-0.16,0.08-0.18,0.31-0.19,0.37c-0.01,0.17,0.04,0.3,0.13,0.37l0.37,0.06
		c0.96,0.12,1.02,0.25,1.02,2.3v6.98c0,2.1-0.12,2.19-1.04,2.28l-0.67,0.06l-0.04,0.04c-0.11,0.11-0.12,0.29-0.1,0.42
		c0.02,0.14,0.09,0.25,0.18,0.3l0.03,0.02l0.04,0c1.09-0.04,1.75-0.06,2.56-0.06h1.7c1.65,0,3.3,0.02,5.06,0.06l0.09,0l0.04-0.09
		C178.45,13.9,178.93,12.4,179.06,11.72 M188.81,7.34c-0.54,0.42-1.27,0.47-1.86,0.47c-0.85,0-1.12-0.03-1.19-0.06
		c-0.02-0.08-0.02-0.31-0.02-0.53V2.69c0-0.44,0-0.47,1.08-0.47c2.12,0,2.88,1.53,2.88,2.84C189.7,6.13,189.42,6.86,188.81,7.34
		 M194.5,14.56c0.09-0.07,0.13-0.19,0.11-0.3c-0.02-0.11-0.08-0.19-0.17-0.23l-0.04-0.01c-0.45-0.03-0.9-0.22-1.22-0.51
		c-1.3-1.12-2.33-2.75-3.76-5.12c-0.1-0.16-0.11-0.24-0.11-0.27c0.63-0.27,2.4-1.22,2.4-3.36c0-1.62-0.9-2.44-1.64-2.85
		c-0.95-0.53-2.16-0.6-3.22-0.6c-1.73,0-3.07,0.05-4.22,0.15l-0.05,0.02c-0.11,0.06-0.18,0.18-0.19,0.33
		c-0.01,0.17,0.05,0.33,0.15,0.41l0.03,0.02l0.64,0.08c0.62,0.08,0.7,0.21,0.7,2.12v6.96c0,2.05-0.05,2.16-1,2.28l-0.53,0.06
		l-0.04,0.04c-0.11,0.13-0.12,0.31-0.09,0.44c0.03,0.13,0.09,0.23,0.18,0.27l0.03,0.02l0.04,0c0.84-0.04,1.53-0.06,2.35-0.06
		c0.78,0,1.44,0.02,2.24,0.06l0.04,0l0.03-0.02c0.14-0.07,0.17-0.26,0.18-0.33c0.02-0.17-0.02-0.32-0.12-0.4l-0.03-0.03l-0.44-0.06
		c-0.97-0.14-1.01-0.22-1.01-2.28V8.97c0-0.28,0-0.28,0.74-0.28c0.73,0,0.97,0.18,1.22,0.55c0.29,0.43,0.62,0.97,0.94,1.5
		c0.34,0.55,0.66,1.07,0.91,1.43c1.3,1.9,2.27,2.51,4.03,2.51c0.36,0,0.68-0.04,0.88-0.1L194.5,14.56z M199.26,3.97
		c0-0.75,0.27-2,2.1-2c1.66,0,2.17,1.11,2.43,2.08l0.03,0.06c0.06,0.08,0.16,0.12,0.29,0.12c0.14,0,0.33-0.06,0.42-0.19l0.02-0.04
		V3.95c0-0.79-0.16-1.9-0.35-2.42l-0.04-0.1h-0.1c-0.13,0-0.39-0.03-0.62-0.11c-0.45-0.12-1.16-0.26-1.79-0.26c-2.39,0-4,1.4-4,3.48
		c0,1.77,1.32,2.93,2.1,3.46l1.79,1.2c1.3,0.86,1.48,1.75,1.48,2.59c0,1.04-0.69,2.08-2.21,2.08c-1.91,0-2.74-1.51-3.11-2.78
		l-0.02-0.04c-0.06-0.09-0.16-0.13-0.29-0.13c-0.13,0-0.31,0.05-0.4,0.19l-0.03,0.04l0,0.05c0.04,0.88,0.28,2.31,0.53,2.78
		l0.02,0.04l0.04,0.02c0.37,0.22,1.41,0.74,3.02,0.74c2.49,0,4.17-1.5,4.17-3.74c0-1.55-0.79-2.81-2.43-3.85l-1.51-0.97
		C200.22,5.86,199.26,5.08,199.26,3.97 M197.41,42.74h-5.57c-1.27,0-1.31-0.05-0.95-1.12l2.85-8.1c0.5-1.4,0.95-2.51,1.09-2.75h0.09
		c0.27,0.56,0.68,1.82,1.04,2.93l2.45,7.59C198.81,42.55,198.72,42.74,197.41,42.74 M209.09,55.4c-1.95-0.23-2.54-0.93-3.85-4.93
		l-6.21-18.71c-0.68-2.05-1.4-4.19-1.99-6.24c-0.09-0.33-0.41-0.42-0.68-0.42c-0.5,0.6-1.27,1.44-2.36,1.77
		c0.14,0.75-0.13,1.63-0.77,3.3l-4.62,12.57c-1.9,5.21-3.17,8.24-3.99,10.38c-0.63,1.68-1.63,2.19-2.72,2.28l-1.5,0.14
		c-0.27,0.23-0.18,0.98,0.09,1.16c1.22-0.05,2.85-0.14,4.35-0.14c2.13,0.05,3.54,0.05,4.71,0.14c0.41-0.19,0.41-0.93,0.09-1.16
		l-1.5-0.14c-1.09-0.09-1.31-0.37-1.31-0.93c0-0.51,0.32-1.77,1-3.86l1.58-4.89c0.32-0.98,0.59-1.12,1.72-1.12H198
		c1.36,0,1.54,0.14,1.86,1.16l1.99,6.33c0.36,1.12,0.59,1.96,0.59,2.47c0,0.47-0.63,0.75-1.58,0.84l-1.31,0.14
		c-0.32,0.23-0.27,0.98,0.09,1.16c1.31-0.05,3.03-0.14,5.21-0.14c2.04,0,3.62,0.05,5.48,0.14c0.23-0.19,0.32-0.93,0-1.16
		L209.09,55.4z M212.21,11.38v-6.9c0-2.12,0.06-2.25,1.02-2.33l0.51-0.04l0.03-0.02c0.09-0.06,0.14-0.2,0.13-0.37
		c0-0.07-0.03-0.3-0.19-0.38l-0.03-0.02l-0.04,0c-0.89,0.04-1.56,0.06-2.34,0.06c-0.81,0-1.46-0.02-2.37-0.06l-0.04,0l-0.03,0.02
		c-0.15,0.08-0.18,0.31-0.18,0.38c-0.01,0.17,0.04,0.3,0.13,0.37l0.03,0.02l0.51,0.04c0.96,0.08,1.02,0.21,1.02,2.33v6.9
		c0,2.09-0.05,2.2-1.02,2.32l-0.52,0.06l-0.03,0.04c-0.11,0.11-0.12,0.29-0.1,0.42c0.02,0.14,0.09,0.25,0.18,0.3l0.03,0.02l0.04,0
		c0.96-0.04,1.59-0.06,2.37-0.06c0.75,0,1.37,0.02,2.34,0.06l0.04,0l0.03-0.02c0.15-0.08,0.18-0.31,0.19-0.38
		c0.01-0.17-0.04-0.3-0.13-0.36l-0.54-0.08C212.25,13.57,212.21,13.46,212.21,11.38 M229.41,1.08l0.01-0.05l-0.02-0.05
		c-0.07-0.14-0.27-0.16-0.35-0.16c-0.05,0-0.12,0-0.18,0.03l-0.05,0.02l-0.02,0.04c-0.24,0.43-0.34,0.47-1.35,0.47h-7.8
		c-0.84,0-1.22-0.04-1.3-0.48l-0.01-0.04l-0.03-0.03c-0.05-0.05-0.14-0.08-0.26-0.08c-0.04,0-0.2,0-0.28,0.06l-0.05,0.04l-0.01,0.06
		c-0.13,0.77-0.41,2-0.71,2.87l-0.02,0.06l0.03,0.06c0.12,0.23,0.5,0.35,0.71,0.19l0.03-0.02l0.01-0.04
		c0.19-0.45,0.37-0.87,0.81-1.29c0.42-0.39,1.36-0.44,2.23-0.44h1.04c0.42,0,0.42,0,0.42,0.47v8.67c0,2.1-0.12,2.19-1.04,2.28
		l-0.68,0.06l-0.06,0.02c-0.11,0.07-0.18,0.22-0.17,0.39c0,0.13,0.06,0.29,0.18,0.36l0.03,0.02l0.04,0
		c1.15-0.04,1.85-0.06,2.62-0.06c0.74,0,1.35,0.02,2.47,0.06l0.04,0l0.03-0.02c0.16-0.08,0.18-0.31,0.19-0.37
		c0.01-0.17-0.04-0.3-0.13-0.37l-0.67-0.08c-0.94-0.08-1-0.21-1-2.28v-8.7c0-0.2,0-0.38,0.03-0.41c0.03-0.03,0.24-0.03,0.37-0.03
		h1.34c1.01,0,1.7,0.15,2.1,0.46c0.18,0.13,0.33,0.62,0.41,1.31l0,0.04l0.03,0.03c0.07,0.09,0.2,0.14,0.34,0.14
		c0.18,0,0.33-0.08,0.39-0.21l0.02-0.04l0-0.04C229.08,3.42,229.21,1.85,229.41,1.08 M237.14,25.8c-0.77-0.19-3.17-0.7-5.75-0.7
		c-6.84,0-11.32,2.19-14.36,5.44c-2.81,3.07-4.08,7.07-4.08,11.03c0,4.1,1.45,7.77,4.17,10.57c3.49,3.63,8.43,5.17,13.82,5.17
		c2.45,0,5.71-0.56,8.11-1.21c0.86-0.23,1.68-0.42,2.22-0.42c0.18-0.14,0.18-0.42,0.05-0.56c-0.81-0.33-1.09-1.44-1.09-3.3v-2.61
		c0-2.37,0.04-3.68,1.95-3.91l0.72-0.09c0.32-0.28,0.27-0.98-0.04-1.16c-1.5,0.09-3.04,0.14-4.8,0.14c-2.67,0-5.16-0.05-6.48-0.14
		c-0.32,0.14-0.36,0.98,0,1.16l1.99,0.23c2.81,0.32,2.95,0.6,2.95,4.51v1.86c0,1.49-0.23,2.33-0.45,2.65
		c-0.5,0.79-2.17,1.4-4.98,1.4c-9.1,0-13.59-7.03-13.59-15.97c0-6.98,3.85-13.4,12.64-13.4c4.62,0,8.02,1.58,9.29,6.61
		c0.27,0.28,1.09,0.23,1.22-0.14c-0.41-2.79-0.68-5.21-0.68-6.75C239.4,26.31,238,25.98,237.14,25.8 M243.75,2.06
		c0.1-0.09,0.15-0.23,0.14-0.37c-0.01-0.15-0.08-0.28-0.19-0.35l-0.04-0.03l-0.05,0c-1.34,0.08-2.13,0.08-3.55,0l-0.04,0l-0.04,0.02
		c-0.1,0.05-0.18,0.16-0.2,0.3c-0.02,0.16,0.02,0.32,0.12,0.42l0.04,0.04l0.39,0.04c0.37,0.05,0.6,0.14,0.66,0.19
		c-0.06,0.28-0.72,1.54-1.12,2.3l-0.09,0.17c-0.46,0.9-0.98,1.88-1.64,3.04c-0.5-0.92-0.98-1.94-1.45-2.92
		c-0.18-0.39-0.37-0.77-0.55-1.15c-0.13-0.28-0.56-1.27-0.57-1.43c0-0.04,0.09-0.12,0.67-0.2l0.29-0.04l0.04-0.04
		c0.1-0.1,0.15-0.3,0.11-0.46c-0.03-0.13-0.11-0.23-0.22-0.27l-0.03-0.01l-0.03,0c-0.46,0.04-1.14,0.06-2.01,0.06
		c-0.87,0-1.57-0.02-2.18-0.06l-0.04,0l-0.04,0.02c-0.09,0.05-0.16,0.16-0.18,0.29c-0.02,0.16,0.01,0.32,0.1,0.42l0.03,0.04
		l0.58,0.11c0.5,0.09,0.75,0.13,1.39,1.39l2.23,4.46c0.53,1.06,0.59,1.27,0.59,2.34v0.99c0,2.11-0.05,2.21-1,2.32l-0.64,0.06
		l-0.04,0.04c-0.11,0.11-0.12,0.29-0.1,0.42c0.02,0.14,0.09,0.25,0.18,0.3l0.03,0.02l0.04,0c1.02-0.04,1.68-0.06,2.47-0.06
		c0.77,0,1.44,0.02,2.56,0.06l0.04,0l0.03-0.02c0.09-0.05,0.16-0.16,0.18-0.3c0.02-0.13,0-0.31-0.1-0.42l-0.04-0.04l-0.77-0.06
		c-0.87-0.07-1-0.21-1-2.32v-1.01c0-1.45,0.04-1.6,0.87-3.07l1.19-2.11c0.11-0.19,0.21-0.38,0.31-0.55
		c0.74-1.33,1.28-2.29,2.08-2.44l0.57-0.1L243.75,2.06z M253.76,40.04c0-10.19,6.11-13.5,10.83-13.5c8.65,0,11.96,8.28,11.96,15.96
		c0,9.17-5.16,13.36-10.6,13.36C257.02,55.87,253.76,46.93,253.76,40.04 M249.23,41.53c0,8.38,6.07,15.78,16.13,15.78
		c8.74,0,15.72-6.84,15.72-16.24c0-8.19-5.25-15.96-15.72-15.96C256.02,25.1,249.23,32.22,249.23,41.53 M264.67,8.47
		c0,4-2.3,5.42-4.27,5.42c-3.89,0-4.93-4.05-4.93-6.44c0-4.04,2.35-5.48,4.37-5.48C263.4,1.96,264.67,5.47,264.67,8.47 M266.84,7.87
		c0-3.28-2.09-6.8-6.7-6.8c-3.91,0-6.87,3.01-6.87,7c0,3.34,2.36,6.72,6.87,6.72C263.97,14.78,266.84,11.81,266.84,7.87
		 M279.51,4.09l0.02-0.04l0-0.04c-0.04-0.7-0.06-1.61-0.06-2.55V1.28l-0.18,0.04c-0.23,0.05-1.39,0.05-2.52,0.05h-3.47
		c-0.71,0-1.34-0.02-2.18-0.06l-0.04,0l-0.03,0.02c-0.16,0.08-0.18,0.31-0.19,0.37c-0.01,0.17,0.04,0.3,0.13,0.37l0.36,0.06
		c0.96,0.12,1,0.23,1,2.3v6.98c0,2.05-0.05,2.16-1,2.28l-0.52,0.06l-0.04,0.04c-0.11,0.11-0.12,0.29-0.1,0.42
		c0.02,0.14,0.09,0.25,0.18,0.3l0.03,0.02l0.04,0c0.88-0.04,1.52-0.06,2.35-0.06c0.76,0,1.42,0.02,2.51,0.06l0.04,0l0.03-0.02
		c0.12-0.06,0.18-0.24,0.19-0.38c0.01-0.17-0.04-0.3-0.13-0.36l-0.71-0.08c-0.96-0.08-1.02-0.21-1.02-2.28v-2.7
		c0-0.38,0-0.38,0.48-0.38h1.28c0.66,0,1.16,0.02,1.41,0.09c0.27,0.09,0.41,0.26,0.51,0.63l0.2,0.8l0.03,0.03
		c0.19,0.17,0.59,0.16,0.71-0.03l0.03-0.04V9.79c0-0.2-0.01-0.46-0.03-0.75c-0.02-0.35-0.04-0.75-0.04-1.13
		c0-0.39,0.02-0.81,0.04-1.17c0.02-0.3,0.03-0.57,0.03-0.78V5.9l-0.03-0.04c-0.09-0.14-0.28-0.15-0.36-0.15
		c-0.16,0-0.29,0.05-0.37,0.14l-0.2,0.84c-0.11,0.47-0.23,0.52-0.38,0.57c-0.2,0.07-0.78,0.11-1.56,0.11h-1.28
		c-0.48,0-0.48,0-0.48-0.38V2.9c0-0.63,0-0.63,0.42-0.63h1.15c0.78,0,1.4,0,1.79,0.11c0.81,0.22,1.05,0.77,1.21,1.72l0.01,0.05
		l0.04,0.03c0.07,0.06,0.17,0.1,0.29,0.1C279.27,4.3,279.44,4.24,279.51,4.09"/>
</g>
</svg>
