<?xml version="1.0" encoding="utf-8"?>
<!-- Generator: Adobe Illustrator 16.0.0, SVG Export Plug-In . SVG Version: 6.00 Build 0)  -->
<!DOCTYPE svg PUBLIC "-//W3C//DTD SVG 1.1//EN" "http://www.w3.org/Graphics/SVG/1.1/DTD/svg11.dtd">
<svg version="1.1" id="Layer_1" xmlns="http://www.w3.org/2000/svg" xmlns:xlink="http://www.w3.org/1999/xlink" x="0px" y="0px"
	 width="313px" height="62.934px" viewBox="-11 -14.017 313 62.934" enable-background="new -11 -14.017 313 62.934"
	 xml:space="preserve">
<g id="Layer_13">
</g>
<g id="Wordmark_1_">
</g>
<g id="Icon:_Twitter_1_">
	<g id="twitter_x5F_newbird_x5F_boxed_x5F_whiteonblue_xA0_Image_1_">
	</g>
</g>
<g id="Icon:_UChicago_mobile_1_">
	<g id="Shape_11_xA0_Image_1_">
	</g>
	<g id="m">
	</g>
	<g id="bars_1_">
	</g>
</g>
<g id="Icon:_Futurity_1_">
	<g id="Shape_10_xA0_Image_1_">
	</g>
	<g id="futurity_xA0_Image_1_">
	</g>
</g>
<g id="Search">
</g>
<g id="wordmark">
	<path fill="#FFFFFF" d="M300.26-9.573l0.02-0.04v-0.04c-0.039-0.76-0.07-1.74-0.07-2.76v-0.2l-0.199,0.04
		c-0.25,0.06-1.551,0.06-2.801,0.06h-3.869c-0.791,0-1.5-0.02-2.43-0.06h-0.041l-0.039,0.02c-0.17,0.09-0.201,0.33-0.201,0.41
		c-0.01,0.19,0.041,0.33,0.141,0.4l0.4,0.07c1.07,0.13,1.119,0.25,1.119,2.49v7.56c0,2.23-0.049,2.33-1.119,2.47l-0.58,0.07
		l-0.041,0.03c-0.119,0.12-0.139,0.31-0.119,0.46c0.029,0.16,0.1,0.28,0.211,0.33l0.029,0.02h0.039c0.98-0.04,1.691-0.06,2.621-0.06
		c0.85,0,1.58,0.03,2.789,0.06h0.041l0.029-0.02c0.131-0.07,0.191-0.25,0.201-0.41c0.01-0.18-0.041-0.32-0.141-0.4l-0.791-0.08
		c-1.08-0.09-1.129-0.23-1.129-2.47v-2.92c0-0.41,0-0.41,0.529-0.41h1.43c0.74,0,1.291,0.02,1.57,0.1
		c0.301,0.09,0.461,0.29,0.57,0.69l0.221,0.87l0.029,0.03c0.211,0.18,0.65,0.17,0.791-0.03l0.029-0.04v-0.05
		c0-0.22-0.02-0.5-0.029-0.81c-0.031-0.38-0.051-0.81-0.051-1.23c0-0.42,0.029-0.88,0.051-1.28c0.02-0.33,0.029-0.63,0.029-0.85
		v-0.05l-0.029-0.04c-0.102-0.15-0.311-0.17-0.4-0.17c-0.18,0-0.33,0.06-0.41,0.15l-0.221,0.91c-0.119,0.51-0.26,0.56-0.42,0.62
		c-0.219,0.08-0.869,0.12-1.74,0.12h-1.43c-0.529,0-0.529,0-0.529-0.41v-4.42c0-0.68,0-0.68,0.469-0.68h1.281
		c0.869,0,1.561,0,2,0.12c0.9,0.24,1.17,0.84,1.35,1.87l0.01,0.06l0.041,0.03c0.08,0.07,0.189,0.11,0.318,0.11
		C299.99-9.353,300.18-9.423,300.26-9.573L300.26-9.573z M286.15-5.483c0-3.55-2.33-7.37-7.451-7.37c-4.359,0-7.65,3.26-7.65,7.58
		c0,3.62,2.621,7.28,7.65,7.28C282.949,2.007,286.15-1.213,286.15-5.483L286.15-5.483z M283.73-4.833c0,4.33-2.561,5.87-4.75,5.87
		c-4.34,0-5.5-4.39-5.5-6.99c0-4.38,2.619-5.93,4.869-5.93C282.32-11.883,283.73-8.083,283.73-4.833L283.73-4.833z M266.539,30.997
		c0,9.08,6.76,17.1,17.961,17.1c9.74,0,17.5-7.42,17.5-17.6c0-8.87-5.85-17.3-17.5-17.3C274.1,13.197,266.539,20.907,266.539,30.997
		L266.539,30.997z M271.58,29.387c0-11.05,6.811-14.63,12.049-14.63c9.641,0,13.32,8.97,13.32,17.3
		c0,9.94-5.75,14.479-11.799,14.479C275.209,46.536,271.58,36.847,271.58,29.387L271.58,29.387z M260.43-11.783
		c0.109-0.09,0.16-0.25,0.15-0.41c-0.02-0.16-0.09-0.3-0.211-0.38l-0.039-0.02h-0.051c-1.5,0.08-2.379,0.08-3.949,0h-0.041
		l-0.039,0.02c-0.121,0.06-0.189,0.18-0.221,0.32c-0.029,0.17,0.02,0.35,0.131,0.46l0.039,0.04l0.43,0.05
		c0.4,0.05,0.66,0.15,0.74,0.2c-0.07,0.31-0.799,1.67-1.24,2.5l-0.09,0.18c-0.51,0.98-1.09,2.03-1.83,3.3
		c-0.549-1-1.09-2.1-1.619-3.17c-0.199-0.41-0.41-0.84-0.621-1.24c-0.148-0.3-0.619-1.38-0.629-1.55c0-0.04,0.09-0.13,0.75-0.22
		l0.33-0.05l0.029-0.04c0.111-0.11,0.16-0.32,0.121-0.5c-0.041-0.14-0.131-0.25-0.25-0.29l-0.031-0.01h-0.029
		c-0.52,0.04-1.27,0.06-2.23,0.06c-0.969,0-1.74-0.02-2.43-0.06h-0.051l-0.039,0.02c-0.1,0.06-0.18,0.17-0.199,0.31
		c-0.031,0.17,0.02,0.35,0.109,0.46l0.029,0.04l0.641,0.12c0.561,0.09,0.84,0.14,1.539,1.52l2.48,4.84
		c0.59,1.14,0.66,1.38,0.66,2.53v1.08c0,2.28-0.051,2.39-1.119,2.51l-0.711,0.07l-0.039,0.04c-0.121,0.12-0.141,0.32-0.111,0.46
		c0.021,0.15,0.102,0.27,0.191,0.32l0.029,0.02h0.039c1.131-0.04,1.871-0.06,2.75-0.06c0.852,0,1.611,0.03,2.852,0.06h0.039
		l0.031-0.02c0.1-0.05,0.18-0.17,0.199-0.32c0.029-0.14,0.01-0.34-0.121-0.46l-0.039-0.04l-0.859-0.07
		c-0.971-0.08-1.111-0.24-1.111-2.5v-1.09c0-1.57,0.041-1.73,0.961-3.32l1.33-2.29c0.119-0.2,0.24-0.4,0.35-0.6
		c0.83-1.45,1.42-2.49,2.32-2.64l0.629-0.11L260.43-11.783L260.43-11.783z M253.07,13.947c-0.852-0.2-3.531-0.75-6.4-0.75
		c-7.621,0-12.609,2.37-15.99,5.9c-3.131,3.33-4.539,7.66-4.539,11.95c0,4.44,1.619,8.43,4.639,11.45
		c3.881,3.93,9.381,5.6,15.391,5.6c2.73,0,6.35-0.6,9.029-1.311c0.961-0.25,1.871-0.459,2.471-0.459
		c0.199-0.15,0.199-0.461,0.049-0.601c-0.898-0.36-1.209-1.569-1.209-3.579v-2.82c0-2.57,0.051-3.98,2.17-4.24l0.811-0.1
		c0.35-0.301,0.309-1.061-0.051-1.261c-1.66,0.101-3.379,0.15-5.35,0.15c-2.98,0-5.75-0.05-7.211-0.15
		c-0.359,0.15-0.408,1.06,0,1.261l2.221,0.25c3.131,0.359,3.27,0.66,3.27,4.89v2.021c0,1.619-0.26,2.52-0.5,2.879
		c-0.559,0.851-2.42,1.51-5.549,1.51c-10.141,0-15.131-7.609-15.131-17.31c0-7.56,4.291-14.52,14.08-14.52
		c5.141,0,8.93,1.72,10.35,7.17c0.311,0.3,1.211,0.25,1.361-0.15c-0.451-3.03-0.762-5.65-0.762-7.32
		C255.59,14.507,254.029,14.147,253.07,13.947L253.07,13.947z M244.469-12.843l0.021-0.06l-0.031-0.05
		c-0.08-0.15-0.299-0.18-0.389-0.18c-0.051,0-0.131,0.01-0.191,0.03l-0.049,0.02l-0.031,0.05c-0.27,0.46-0.379,0.51-1.5,0.51h-8.689
		c-0.939,0-1.359-0.05-1.449-0.52l-0.01-0.05l-0.031-0.03c-0.059-0.06-0.15-0.08-0.289-0.08c-0.051,0-0.221,0.01-0.311,0.07
		l-0.061,0.03l-0.01,0.07c-0.139,0.84-0.459,2.17-0.789,3.1l-0.02,0.07l0.029,0.06c0.129,0.25,0.561,0.38,0.789,0.2l0.041-0.03
		l0.02-0.03c0.211-0.49,0.41-0.95,0.91-1.4c0.471-0.42,1.51-0.479,2.48-0.479h1.16c0.459,0,0.459,0,0.459,0.51v9.4
		c0,2.27-0.129,2.38-1.15,2.47l-0.76,0.06l-0.08,0.03c-0.129,0.08-0.199,0.24-0.189,0.42c0.01,0.14,0.07,0.32,0.211,0.39l0.029,0.02
		h0.039c1.291-0.04,2.07-0.06,2.92-0.06c0.82,0,1.5,0.02,2.75,0.06h0.041l0.039-0.02c0.182-0.08,0.201-0.33,0.201-0.41
		c0.01-0.19-0.041-0.33-0.141-0.4l-0.75-0.08c-1.049-0.09-1.119-0.23-1.119-2.47v-9.44c0-0.21,0-0.42,0.029-0.45
		s0.26-0.03,0.41-0.03h1.49c1.119,0,1.891,0.16,2.34,0.49c0.199,0.14,0.369,0.68,0.459,1.42l0.012,0.04l0.029,0.03
		c0.08,0.09,0.221,0.15,0.381,0.15c0.199,0,0.359-0.08,0.43-0.22l0.029-0.04l-0.01-0.04C244.09-10.303,244.24-12.003,244.469-12.843
		L244.469-12.843z M225.311-1.673v-7.49c0-2.29,0.068-2.44,1.129-2.53l0.57-0.04l0.029-0.02c0.102-0.07,0.16-0.22,0.141-0.4
		c-0.01-0.08-0.039-0.32-0.211-0.41l-0.039-0.02h-0.039c-0.99,0.03-1.73,0.06-2.602,0.06c-0.91,0-1.629-0.03-2.639-0.06h-0.041
		l-0.039,0.02c-0.17,0.09-0.201,0.33-0.201,0.41c-0.01,0.19,0.041,0.33,0.141,0.4l0.039,0.02l0.57,0.04
		c1.07,0.09,1.131,0.24,1.131,2.53v7.49c0,2.26-0.051,2.38-1.141,2.51l-0.59,0.07l-0.039,0.04c-0.121,0.12-0.131,0.31-0.111,0.46
		c0.031,0.15,0.09,0.27,0.191,0.32l0.039,0.021h0.041c1.08-0.04,1.779-0.061,2.639-0.061c0.84,0,1.531,0.021,2.6,0.061h0.041
		l0.029-0.021c0.17-0.08,0.201-0.33,0.201-0.41c0.01-0.19-0.041-0.33-0.141-0.4l-0.6-0.08
		C225.359,0.697,225.311,0.577,225.311-1.673L225.311-1.673z M221.85,46.026c-2.17-0.25-2.83-1.01-4.289-5.35l-6.91-20.28
		c-0.75-2.22-1.57-4.54-2.221-6.76c-0.1-0.35-0.461-0.46-0.75-0.46c-0.561,0.65-1.41,1.57-2.619,1.92
		c0.148,0.8-0.15,1.77-0.861,3.58l-5.139,13.62c-2.121,5.649-3.531,8.92-4.441,11.25c-0.699,1.819-1.82,2.37-3.029,2.47l-1.67,0.15
		c-0.301,0.25-0.201,1.06,0.1,1.26c1.359-0.05,3.18-0.15,4.84-0.15c2.371,0.051,3.93,0.051,5.24,0.15c0.461-0.2,0.461-1.01,0.1-1.26
		l-1.67-0.15c-1.209-0.1-1.459-0.41-1.459-1.01c0-0.561,0.359-1.92,1.109-4.189l1.77-5.301c0.35-1.06,0.66-1.21,1.92-1.21h7.621
		c1.51,0,1.719,0.15,2.07,1.261l2.219,6.859c0.41,1.21,0.66,2.12,0.66,2.67c0,0.51-0.699,0.811-1.76,0.91l-1.459,0.15
		c-0.361,0.25-0.301,1.06,0.1,1.26c1.459-0.051,3.379-0.15,5.799-0.15c2.271,0,4.041,0.051,6.102,0.15c0.25-0.2,0.359-1.01,0-1.26
		L221.85,46.026L221.85,46.026z M208.83,32.317h-6.201c-1.41,0-1.459-0.051-1.059-1.211l3.18-8.78c0.561-1.51,1.061-2.72,1.209-2.98
		h0.102c0.299,0.61,0.75,1.97,1.158,3.18l2.721,8.22C210.391,32.106,210.289,32.317,208.83,32.317L208.83,32.317z M210.879-9.713
		c0-0.81,0.301-2.17,2.34-2.17c1.852,0,2.422,1.21,2.711,2.26l0.029,0.06c0.07,0.08,0.182,0.13,0.32,0.13
		c0.16,0,0.371-0.07,0.471-0.2l0.029-0.04v-0.04c0-0.85-0.18-2.06-0.389-2.62l-0.031-0.1h-0.109c-0.141,0-0.43-0.03-0.689-0.12
		c-0.5-0.13-1.291-0.28-2-0.28c-2.66,0-4.451,1.51-4.451,3.77c0,1.92,1.471,3.17,2.35,3.75l2,1.3c1.451,0.94,1.65,1.9,1.65,2.81
		c0,1.12-0.76,2.26-2.469,2.26c-2.121,0-3.051-1.64-3.461-3.02l-0.02-0.04c-0.07-0.09-0.18-0.14-0.32-0.14s-0.34,0.05-0.449,0.2
		l-0.031,0.04v0.05c0.041,0.95,0.311,2.5,0.58,3.01l0.029,0.04l0.041,0.03c0.41,0.24,1.561,0.8,3.359,0.8
		c2.781,0,4.631-1.62,4.631-4.05c0-1.68-0.891-3.05-2.711-4.17l-1.68-1.05C211.959-7.663,210.879-8.503,210.879-9.713L210.879-9.713
		z M205.59,1.767c0.1-0.08,0.141-0.2,0.129-0.32c-0.02-0.12-0.09-0.2-0.18-0.25l-0.039-0.01c-0.5-0.03-1.01-0.25-1.359-0.55
		c-1.451-1.22-2.602-2.99-4.191-5.55c-0.109-0.18-0.129-0.26-0.129-0.3c0.699-0.29,2.67-1.32,2.67-3.64c0-1.76-1-2.65-1.83-3.09
		c-1.061-0.57-2.4-0.65-3.59-0.65c-1.93,0-3.42,0.05-4.711,0.17l-0.061,0.02c-0.119,0.06-0.199,0.19-0.209,0.36
		c-0.02,0.18,0.051,0.35,0.17,0.44l0.029,0.03l0.711,0.08c0.689,0.08,0.789,0.23,0.789,2.3v7.55c0,2.23-0.049,2.33-1.119,2.47
		l-0.59,0.07l-0.041,0.05c-0.119,0.14-0.119,0.34-0.1,0.48c0.029,0.15,0.1,0.25,0.189,0.3l0.031,0.021h0.039
		c0.93-0.03,1.701-0.061,2.621-0.061c0.869,0,1.6,0.03,2.49,0.061h0.039l0.029-0.021c0.15-0.08,0.191-0.28,0.201-0.36
		c0.029-0.19-0.031-0.35-0.131-0.43l-0.029-0.03l-0.49-0.07c-1.08-0.15-1.131-0.24-1.131-2.47v-2.65c0-0.3,0-0.3,0.83-0.3
		c0.801,0,1.08,0.19,1.361,0.6c0.32,0.47,0.689,1.05,1.049,1.62c0.371,0.59,0.73,1.16,1.01,1.56c1.451,2.06,2.531,2.72,4.48,2.72
		c0.41,0,0.76-0.04,0.971-0.11L205.59,1.767L205.59,1.767z M199.26-6.053c-0.6,0.46-1.42,0.52-2.061,0.52
		c-0.949,0-1.25-0.03-1.33-0.06c-0.029-0.08-0.029-0.34-0.029-0.58v-4.93c0-0.47,0-0.52,1.199-0.52c2.361,0,3.201,1.66,3.201,3.08
		C200.24-7.373,199.93-6.583,199.26-6.053L199.26-6.053z M188.4-1.313l0.01-0.05l-0.02-0.04c-0.092-0.2-0.311-0.29-0.5-0.29
		c-0.102,0-0.191,0.02-0.271,0.08l-0.049,0.05c-0.602,1.2-1.141,1.811-1.42,1.96c-0.451,0.23-1.09,0.3-2.621,0.3
		c-1.75,0-2.199-0.21-2.43-0.43c-0.301-0.31-0.359-1-0.359-2.07v-2.96c0-0.41,0-0.41,0.529-0.41h1.221c0.74,0,1.279,0.02,1.58,0.1
		c0.289,0.08,0.439,0.26,0.529,0.68l0.189,0.82l0.031,0.07c0.08,0.09,0.229,0.15,0.398,0.15c0.191,0,0.352-0.07,0.422-0.19
		l0.029-0.03v-0.04c0-0.2-0.02-0.47-0.029-0.78c-0.031-0.38-0.051-0.82-0.051-1.23c0-0.44,0.029-0.89,0.051-1.29
		c0.02-0.32,0.029-0.61,0.029-0.84v-0.05l-0.029-0.03c-0.07-0.12-0.23-0.19-0.422-0.19c-0.17,0-0.309,0.06-0.389,0.15l-0.201,0.93
		c-0.09,0.48-0.209,0.55-0.398,0.61c-0.23,0.08-0.861,0.12-1.73,0.12h-1.221c-0.529,0-0.529,0-0.529-0.43v-4.2
		c0-0.68,0-0.68,0.469-0.68h1.512c0.889,0,1.58,0.02,2,0.12c0.959,0.24,1.148,0.84,1.449,1.76l0.039,0.13l0.021,0.05
		c0.07,0.08,0.189,0.14,0.34,0.14s0.35-0.05,0.439-0.19l0.029-0.05l-0.029-0.3c-0.109-1.23-0.209-2.27-0.32-2.58l-0.049-0.14
		l-0.141,0.03c-0.24,0.06-1.541,0.06-2.801,0.06h-3.949c-0.811,0-1.51-0.02-2.471-0.06h-0.039l-0.031,0.02
		c-0.17,0.09-0.199,0.33-0.199,0.41c-0.02,0.19,0.041,0.33,0.141,0.4l0.41,0.07c1.08,0.13,1.139,0.27,1.139,2.49v7.56
		c0,2.28-0.129,2.38-1.16,2.47l-0.75,0.07l-0.039,0.04c-0.119,0.12-0.131,0.31-0.119,0.46c0.029,0.15,0.1,0.271,0.189,0.32
		l0.029,0.02h0.041c1.219-0.04,1.949-0.06,2.85-0.06h1.891c1.828,0,3.67,0.02,5.619,0.06h0.1l0.041-0.09
		C187.719,1.057,188.25-0.573,188.4-1.313L188.4-1.313z M173.969-11.783c0.111-0.11,0.141-0.31,0.111-0.45
		c-0.02-0.15-0.09-0.27-0.189-0.33l-0.041-0.02h-0.051c-0.699,0.04-1.35,0.06-2.029,0.06c-0.83,0-1.619-0.03-2.17-0.06h-0.051
		l-0.039,0.02c-0.119,0.07-0.189,0.2-0.211,0.37c-0.02,0.17,0.031,0.32,0.141,0.41l0.041,0.03l0.42,0.05
		c0.74,0.08,0.799,0.24,0.799,0.24c0,0.13-0.02,0.35-0.18,0.76c-0.359,0.91-1.359,3.32-1.949,4.7c-0.15,0.36-0.352,0.82-0.57,1.34
		c-0.4,0.95-0.881,2.1-1.291,2.99c-0.99-2.28-1.91-4.58-2.84-6.92c-0.619-1.51-0.959-2.61-1.029-2.88
		c0.029-0.07,0.209-0.16,0.84-0.24l0.359-0.05l0.031-0.03c0.109-0.09,0.16-0.25,0.139-0.41c-0.02-0.17-0.09-0.3-0.209-0.37
		l-0.041-0.02h-0.049c-0.941,0.04-1.67,0.06-2.541,0.06c-0.879,0-1.549-0.02-2.17-0.06h-0.049l-0.041,0.02
		c-0.119,0.08-0.199,0.22-0.209,0.38c-0.021,0.16,0.039,0.31,0.148,0.41l0.041,0.03l0.43,0.05c0.82,0.09,1.1,0.47,1.57,1.62
		l3.699,9.12c0.441,1.09,0.76,2.03,0.951,2.77l0.02,0.08l0.08,0.03c0.119,0.05,0.25,0.08,0.379,0.08c0.121,0,0.24-0.03,0.32-0.09
		l0.051-0.03l0.02-0.05c0.359-1.13,1.371-3.6,2.18-5.47l1.131-2.58c0.971-2.21,1.789-3.87,2.34-4.81
		c0.27-0.43,0.551-0.63,0.959-0.66l0.691-0.04L173.969-11.783L173.969-11.783z M160.25,17.477c-3.83,2.98-6.35,7.771-6.35,13.37
		c0,6.51,3.129,11.1,7.17,13.87c3.68,2.47,8.02,3.38,12.559,3.38c3.23,0,6.861-0.75,7.971-1.16c0.561-0.189,1.16-0.4,1.77-0.5
		c0.76-0.96,2.07-4.289,2.42-6.91c-0.199-0.359-0.959-0.459-1.309-0.199c-1.16,2.979-4.031,7.22-10.541,7.22
		c-8.27,0-14.98-5.851-14.98-16.45c0-10.44,6.561-15.34,14.281-15.34c7.32,0,9.58,3.93,10.34,7.37c0.359,0.31,1.109,0.25,1.359-0.1
		c-0.41-3.08-0.65-6.26-0.699-7.42c-0.461,0.05-0.801-0.05-1.41-0.2c-2.371-0.66-6.201-1.21-8.92-1.21
		C168.629,13.197,163.93,14.607,160.25,17.477L160.25,17.477z M153.811-1.673v-7.49c0-2.28,0.08-2.44,1.129-2.53l0.57-0.04
		l0.029-0.02c0.102-0.07,0.16-0.22,0.141-0.4c-0.01-0.08-0.029-0.32-0.211-0.41l-0.029-0.02H155.4c-0.99,0.03-1.73,0.06-2.602,0.06
		c-0.898,0-1.619-0.03-2.639-0.06h-0.041l-0.029,0.02c-0.18,0.09-0.199,0.33-0.211,0.41c-0.01,0.19,0.041,0.33,0.141,0.4l0.029,0.02
		l0.57,0.04c1.061,0.09,1.131,0.25,1.131,2.53v7.49c0,2.26-0.051,2.38-1.141,2.51l-0.58,0.07l-0.039,0.03
		c-0.121,0.12-0.141,0.32-0.121,0.46c0.021,0.15,0.102,0.27,0.201,0.32l0.029,0.02h0.041c1.068-0.04,1.77-0.06,2.639-0.06
		c0.83,0,1.561,0.03,2.6,0.06h0.041l0.029-0.02c0.18-0.08,0.201-0.33,0.211-0.41c0.01-0.19-0.041-0.33-0.141-0.4l-0.59-0.08
		C153.859,0.697,153.811,0.577,153.811-1.673L153.811-1.673z M143.25,39.616V21.667c0-5.35,0.1-6.21,3.08-6.46l1.26-0.1
		c0.301-0.2,0.199-1.11-0.1-1.26c-2.521,0.1-4.24,0.15-6.26,0.15c-2.11,0-3.83-0.05-6.35-0.15c-0.31,0.15-0.41,1.06-0.1,1.26
		l1.26,0.1c2.98,0.25,3.08,1.11,3.08,6.46v17.949c0,5.351-0.1,6.051-3.08,6.4l-1.26,0.15c-0.3,0.3-0.2,1.109,0.1,1.26
		c2.52-0.1,4.24-0.15,6.35-0.15c2.021,0,3.729,0.051,6.26,0.15c0.299-0.15,0.41-1.07,0.1-1.26l-1.26-0.15
		C143.35,45.677,143.25,44.967,143.25,39.616L143.25,39.616z M145.85-11.783c0.1-0.1,0.15-0.26,0.14-0.43
		c-0.021-0.15-0.09-0.28-0.2-0.35l-0.039-0.02H145.7c-0.689,0.04-1.23,0.06-2.16,0.06c-0.74,0-1.439-0.02-2.47-0.06h-0.03
		l-0.029,0.01c-0.12,0.04-0.211,0.16-0.24,0.31c-0.04,0.19,0.029,0.38,0.141,0.48l0.029,0.03l0.41,0.05
		c0.72,0.09,1.09,0.19,1.18,0.35c0.25,0.4,0.4,1.95,0.4,4.26v4.5c0,0.2,0,0.44-0.01,0.6c-0.73-0.75-1.49-1.61-2.44-2.66l-2.931-3.28
		c-2.08-2.33-3.27-3.87-3.54-4.55l-0.04-0.12l-0.13,0.02c-0.25,0.03-0.6,0.06-0.95,0.06c-0.37,0-1.49,0-2.36-0.06h-0.04l-0.04,0.02
		c-0.11,0.06-0.19,0.17-0.21,0.32c-0.03,0.18,0.02,0.35,0.13,0.46l0.04,0.04l0.41,0.05c0.56,0.07,0.98,0.23,1.2,0.46
		c0.4,0.43,0.42,0.82,0.42,1.4v6.27c0,1.021,0,3.39-0.26,4.07c-0.05,0.11-0.23,0.25-0.79,0.33l-0.63,0.07l-0.04,0.04
		c-0.09,0.09-0.14,0.25-0.13,0.4c0.02,0.16,0.08,0.3,0.19,0.37l0.05,0.03h0.06c0.74-0.04,1.29-0.06,2.18-0.06
		c0.71,0,1.42,0.021,2.45,0.06h0.05l0.04-0.03c0.1-0.07,0.16-0.18,0.19-0.31c0.03-0.15-0.02-0.31-0.11-0.44l-0.04-0.06l-0.73-0.07
		c-0.5-0.04-0.86-0.16-0.95-0.32c-0.23-0.4-0.35-1.95-0.35-4.27v-4.59c0-0.37,0.01-0.78,0.04-1.07c0.34,0.37,0.89,1.03,1.39,1.62
		c0.35,0.41,0.66,0.78,0.86,1.02l4.879,5.55c1.621,1.84,2.391,2.76,2.68,3.16l0.051,0.07h0.08c0.279,0,0.48-0.13,0.55-0.34
		l0.011-0.03v-0.03c-0.031-0.25-0.061-1.08-0.061-3.65v-5.31c0-1.07-0.01-3.32,0.3-3.98c0.03-0.05,0.28-0.24,1.06-0.35l0.351-0.05
		L145.85-11.783L145.85-11.783z M127.01-11.813c0.09-0.11,0.13-0.29,0.11-0.439c-0.02-0.13-0.09-0.24-0.19-0.311l-0.04-0.03h-0.05
		c-0.73,0.04-1.29,0.06-2.2,0.06c-0.8,0-1.59-0.02-2.39-0.06h-0.05l-0.04,0.03c-0.09,0.07-0.16,0.19-0.19,0.33
		c-0.03,0.16,0.02,0.31,0.11,0.41l0.04,0.05l0.59,0.04c0.48,0.04,0.81,0.17,0.92,0.36c0.25,0.43,0.38,1.95,0.38,4.27v2.42
		c0,2.48-0.7,5.43-4.04,5.43c-2.8,0-4.1-1.73-4.1-5.45v-4.55c0-2.23,0.08-2.4,1.12-2.49l0.55-0.04l0.03-0.03
		c0.1-0.07,0.16-0.21,0.14-0.39c-0.01-0.14-0.07-0.33-0.2-0.4l-0.03-0.02h-0.04c-1,0.04-1.7,0.06-2.58,0.06
		c-0.86,0-1.61-0.03-2.6-0.06h-0.04l-0.03,0.02c-0.14,0.07-0.19,0.25-0.21,0.39c-0.01,0.18,0.04,0.32,0.14,0.39l0.03,0.03l0.57,0.04
		c1.04,0.09,1.12,0.25,1.12,2.49v4.96c0,2.54,0.52,4.11,1.69,5.08c0.93,0.8,2.28,1.19,4.03,1.19c1.66,0,3.24-0.61,4.13-1.59
		c1.02-1.09,1.51-2.77,1.51-5.14v-2.36c0-1.07,0-3.56,0.28-4.22c0.1-0.21,0.46-0.37,0.91-0.41l0.57-0.04L127.01-11.813
		L127.01-11.813z M102.85,15.107c0.3-0.2,0.2-1.11-0.1-1.26c-2.17,0.1-3.88,0.15-5.85,0.15c-2.17,0-3.88-0.1-6.35-0.15
		c-0.3,0.15-0.41,1.06-0.1,1.26l1.31,0.1c2.62,0.2,2.98,1.06,2.98,6.35v18.16c0,5.3-0.1,5.8-2.93,6.3l-0.85,0.15
		c-0.3,0.3-0.2,1.109,0.1,1.26c1.97-0.05,3.68-0.15,5.85-0.15c1.97,0,3.68,0.051,6.4,0.15c0.3-0.15,0.41-1.07,0.1-1.26l-1.46-0.15
		c-2.83-0.3-3.08-1.01-3.08-6.3v-7.11c0-1.51,0.1-1.619,2.52-1.619h14.42c2.42,0,2.52,0.1,2.52,1.619v7.11c0,5.3,0,5.8-3.08,6.3
		l-0.96,0.15c-0.3,0.3-0.2,1.109,0.1,1.26c2.22-0.1,4.03-0.15,6.11-0.15c1.97,0,3.68,0.051,6.1,0.15c0.3-0.15,0.41-1.07,0.1-1.26
		l-1.21-0.15c-2.93-0.35-3.03-1.01-3.03-6.3v-18.16c0-5.3,0.1-6.06,3.03-6.35l1.06-0.1c0.31-0.2,0.2-1.11-0.1-1.26
		c-2.27,0.1-3.98,0.15-5.96,0.15c-2.06,0-3.78-0.05-6.11-0.15c-0.31,0.15-0.41,1.06-0.1,1.26l0.96,0.1c2.98,0.3,3.08,1.06,3.08,6.35
		v5.8c0,1.57-0.1,1.62-2.52,1.62h-14.42c-2.42,0-2.52-0.05-2.52-1.62v-5.8c0-5.3,0.1-6.06,3.03-6.35L102.85,15.107L102.85,15.107z
		 M100.82-1.313l0.01-0.05l-0.03-0.04c-0.09-0.2-0.31-0.29-0.49-0.29c-0.1,0-0.19,0.02-0.27,0.08l-0.05,0.06
		c-0.6,1.2-1.14,1.81-1.42,1.96c-0.45,0.23-1.09,0.3-2.62,0.3c-1.75,0-2.2-0.21-2.43-0.43c-0.3-0.31-0.36-1-0.36-2.07v-2.96
		c0-0.41,0-0.41,0.53-0.41h1.22c0.74,0,1.29,0.02,1.58,0.1c0.3,0.08,0.44,0.26,0.53,0.68l0.19,0.82l0.03,0.07
		c0.08,0.09,0.23,0.15,0.4,0.15c0.19,0,0.35-0.07,0.41-0.19l0.03-0.03v-0.04c0-0.2-0.02-0.47-0.03-0.78
		C98.02-4.763,98-5.203,98-5.613c0-0.44,0.03-0.89,0.05-1.29c0.02-0.32,0.03-0.61,0.03-0.84v-0.06l-0.02-0.03
		c-0.07-0.13-0.23-0.19-0.42-0.19c-0.17,0-0.31,0.06-0.39,0.15l-0.2,0.93c-0.09,0.48-0.21,0.55-0.4,0.61
		c-0.22,0.08-0.85,0.12-1.73,0.12H93.7c-0.53,0-0.53,0-0.53-0.43v-4.2c0-0.68,0-0.68,0.46-0.68h1.52c0.9,0,1.57,0.021,2,0.12
		c0.96,0.24,1.15,0.84,1.45,1.76l0.04,0.13l0.03,0.05c0.08,0.08,0.19,0.14,0.34,0.14c0.15,0,0.33-0.08,0.43-0.21l0.03-0.05
		l-0.03-0.31c-0.11-1.23-0.21-2.26-0.32-2.58l-0.05-0.14l-0.14,0.03c-0.24,0.06-1.54,0.06-2.8,0.06h-3.95
		c-0.81,0-1.51-0.02-2.47-0.06h-0.04l-0.03,0.02c-0.17,0.09-0.2,0.33-0.2,0.41c-0.02,0.19,0.04,0.33,0.15,0.4l0.41,0.07
		c1.07,0.13,1.14,0.27,1.14,2.49v7.56c0,2.28-0.14,2.38-1.16,2.47l-0.75,0.07l-0.04,0.04c-0.12,0.12-0.14,0.31-0.12,0.46
		c0.03,0.15,0.1,0.27,0.19,0.32l0.03,0.021h0.04c1.22-0.04,1.95-0.061,2.85-0.061h1.9c1.83,0,3.67,0.021,5.63,0.061h0.1l0.04-0.09
		C100.14,1.057,100.66-0.573,100.82-1.313L100.82-1.313z M83.25-1.633v-7.57c0-2.24,0.06-2.38,1.12-2.49l0.44-0.04l0.08-0.02
		c0.1-0.07,0.16-0.21,0.14-0.4c-0.01-0.08-0.03-0.32-0.2-0.41l-0.03-0.02h-0.06c-1.01,0.04-1.71,0.06-2.47,0.06
		c-0.91,0-1.64-0.03-2.54-0.06h-0.04l-0.03,0.02c-0.18,0.09-0.2,0.33-0.21,0.41c-0.02,0.19,0.04,0.33,0.14,0.4l0.47,0.07
		c1.07,0.11,1.13,0.25,1.13,2.49v2.41c0,0.52,0,0.52-0.89,0.52h-6.01c-0.89,0-0.89,0-0.89-0.52v-2.41c0-2.24,0.06-2.38,1.12-2.49
		l0.4-0.04l0.08-0.02c0.1-0.07,0.16-0.22,0.14-0.4c-0.01-0.08-0.03-0.32-0.21-0.41l-0.03-0.02h-0.04c-0.96,0.04-1.66,0.06-2.43,0.06
		c-0.55,0-1.02-0.02-1.55-0.03c-0.34-0.01-0.69-0.03-1.09-0.03h-0.04l-0.03,0.02c-0.18,0.09-0.2,0.33-0.21,0.41
		c-0.01,0.19,0.04,0.33,0.14,0.41l0.03,0.02l0.59,0.04c0.92,0.07,1.09,0.26,1.09,2.49v7.56c0,2.19-0.04,2.28-1.08,2.47l-0.41,0.08
		l-0.03,0.03c-0.12,0.12-0.14,0.31-0.12,0.46c0.03,0.15,0.1,0.27,0.2,0.32l0.03,0.02h0.04c0.29-0.01,0.57-0.02,0.84-0.03
		c0.5-0.02,1.01-0.03,1.59-0.03c0.79,0,1.46,0.02,2.66,0.06h0.04l0.03-0.02c0.14-0.07,0.19-0.25,0.2-0.41
		c0.01-0.18-0.04-0.32-0.14-0.4l-0.69-0.08c-1.01-0.11-1.13-0.21-1.13-2.47v-2.96c0-0.51,0-0.51,0.89-0.51h6.01
		c0.89,0,0.89,0,0.89,0.51v2.96c0,2.23-0.02,2.28-1.14,2.47l-0.45,0.07l-0.03,0.03c-0.12,0.12-0.13,0.32-0.12,0.46
		c0.03,0.15,0.1,0.27,0.19,0.32l0.03,0.021h0.04c1.01-0.04,1.74-0.061,2.54-0.061c0.83,0,1.56,0.021,2.54,0.061h0.04l0.03-0.021
		c0.18-0.08,0.2-0.33,0.21-0.41c0.01-0.19-0.04-0.33-0.14-0.4l-0.58-0.08C83.3,0.697,83.25,0.577,83.25-1.633L83.25-1.633z
		 M65.96-12.843l0.02-0.06l-0.03-0.05c-0.08-0.16-0.31-0.17-0.39-0.17c-0.05,0-0.13,0.01-0.19,0.03l-0.05,0.02l-0.03,0.05
		c-0.27,0.46-0.38,0.51-1.5,0.51h-8.7c-0.94,0-1.36-0.05-1.45-0.52l-0.01-0.05l-0.03-0.03c-0.06-0.06-0.15-0.08-0.29-0.08
		c-0.05,0-0.22,0.01-0.31,0.07l-0.06,0.03l-0.01,0.07c-0.14,0.84-0.46,2.17-0.8,3.1l-0.02,0.05l0.03,0.06
		c0.13,0.25,0.56,0.38,0.79,0.2l0.03-0.02l0.02-0.03c0.21-0.48,0.42-0.95,0.91-1.4c0.46-0.42,1.51-0.479,2.48-0.479h1.16
		c0.47,0,0.47,0,0.47,0.51v9.4c0,2.28-0.13,2.38-1.16,2.47l-0.75,0.06l-0.08,0.02c-0.13,0.08-0.19,0.24-0.19,0.42
		c0.01,0.14,0.06,0.32,0.2,0.39l0.03,0.021h0.04c1.29-0.04,2.06-0.061,2.92-0.061c0.82,0,1.5,0.021,2.75,0.061h0.04l0.03-0.021
		c0.14-0.07,0.2-0.25,0.2-0.41c0.01-0.18-0.04-0.32-0.14-0.4l-0.74-0.08c-1.05-0.09-1.12-0.23-1.12-2.47v-9.43
		c0-0.21,0-0.42,0.03-0.46c0.03-0.03,0.26-0.03,0.41-0.03h1.49c1.12,0,1.9,0.16,2.34,0.49c0.2,0.14,0.37,0.68,0.47,1.42l0.01,0.05
		l0.03,0.03c0.08,0.09,0.22,0.15,0.38,0.15c0.2,0,0.36-0.08,0.43-0.22l0.02-0.04l-0.01-0.04C65.59-10.313,65.74-12.003,65.96-12.843
		L65.96-12.843z M51.65,30.847c0,6.51,3.13,11.1,7.17,13.87c3.68,2.47,8.02,3.38,12.56,3.38c3.23,0,6.86-0.75,7.97-1.16
		c0.55-0.189,1.16-0.4,1.77-0.5c0.76-0.96,2.07-4.289,2.42-6.91c-0.2-0.359-0.96-0.459-1.31-0.199c-1.16,2.979-4.03,7.22-10.54,7.22
		c-8.27,0-14.98-5.851-14.98-16.45c-0.01-10.45,6.55-15.35,14.27-15.35c7.32,0,9.58,3.93,10.35,7.37c0.36,0.31,1.11,0.25,1.36-0.1
		c-0.41-3.08-0.65-6.26-0.7-7.42c-0.46,0.05-0.8-0.05-1.41-0.2c-2.37-0.66-6.2-1.21-8.93-1.21c-5.24,0-9.94,1.41-13.62,4.29
		C54.17,20.447,51.65,25.247,51.65,30.847L51.65,30.847z M38.53,22.337v-35.14c-28.23-2.73-49.53,0-49.53,0s0,35.13,0,35.14
		c2.25,23.82,24.56,26.609,24.77,26.58C17.75,48.196,36.46,44.446,38.53,22.337L38.53,22.337z M37.29,22.147
		c-1.97,21.209-19.73,24.83-23.51,25.52c-0.2,0.029-21.39-2.65-23.53-25.51c0-0.01,0-33.74,0-33.74s20.24-2.61,47.03,0L37.29,22.147
		L37.29,22.147z M30.1,34.627c0.8-1.13,1.24-2.351,1.52-3.66c-0.46,0.601-1.14,1.12-1.82,1.399
		C29.33,33.866,29.55,35.437,30.1,34.627L30.1,34.627z M30.86,31.227c0.57-0.47,0.89-1.29,1.62-1.53c-0.55-0.51-1.09,0.5-1.37,0.15
		c0.51-0.8,0.83-1.41,0.88-2.4c0.02-0.539,0.65-1.039,0.8-1.34c-0.6,0.09-2.21,1.03-2.53,1.58c-1.08,1.43-1.02,2.771-5.54,4.75
		c-0.23,0,0.84-0.77,1.13-1.67c0.14-0.41,0.74-2.35,0.33-3.279c-0.93,0.949-0.74,1.25-1.01,1.949c-0.68,1.85-1.04,2.021-2.72,3.16
		c-0.22,0.15-1.52,2.15-3.19,2.24c0.17-0.04,0.07-0.46,0.64-0.83c1.88-1.23,1.16-3.88,3.61-4.32c-1.22-0.43-2.06,0.75-2.28,0.631
		c0.99-1.371,0.12-2.521,0.26-3.641c-0.33,0.18-0.66,0.58-0.68,0.91c-0.19,1.99-1.11,2.33-1.21,3.189
		c0.19,1.42-0.95,2.521-1.78,3.521c-0.16-0.83,0.05-1.56,1.09-2.24c0.58-0.38-0.05-1.5-0.05-1.5c-0.24,1.24-0.93,1.62-1.36,1.67
		c-0.38,0.05,1.33-1.729,1.13-3.37c-0.08-0.729-0.3-0.41-0.42-1.22c-1.47,1.63-0.4,2.649-1.9,4.53c-0.71,0.89-0.98,2.46-1.07,2.5
		c0.02-2.34,0.09-1.66,1.13-3.561c0.85-1.56-0.05-3.02-0.16-3.959c-1.87,1.319-1.72,3.799-1.77,3.27
		c-0.05-0.52-0.28-1.46-0.03-2.301c0.42-1.399-0.46-3.54-0.46-3.54c-2.62,4.11-0.42,8.92-0.59,8.86c-1.13-1.789-1.96-1.85-2.22-3.22
		c-0.14-0.74-1.49-4.81-3.97-4.88c1.25,1.07,0.95,1.23,1.03,2.99c-0.8,4.42,5.38,4.869,4.97,7.17c-0.85-1.35-2.14-1.93-4.09-2.99
		c-0.86-0.68-1.83-0.99-1.89-2.061c0.1-0.779,0.14-0.619,0.02-1.619c-0.09-0.721-0.8-0.291-1.33-1.791
		c-1.12,1.011-0.71,2.15-0.62,2.801c0.03,0.189,0.15,0.87-0.02,1.27c-0.4-0.27-0.68-0.84-1.12-1.399
		c-0.8-1.021-0.79-2.271-1.19-3.13c-0.19-0.4-0.45-0.95-0.61-0.961L2.3,25.637c-0.19,1.61-0.1,3,0.62,4.21c0,0-0.2,0.35-0.36,0.43
		c-0.69-0.189-1.67-0.77-2.07-1.89c-0.86,0.729-0.25,1.66-0.29,1.64c-1.94-0.99,0.03-4.83-2.73-4.72c0.68,0.74,0.25,1.69,0.19,2.57
		c-0.02,1.44,1.81,2.56,1.81,2.56c-2.04-0.689-2.46,0.271-2.44,0.271c0,0,3,1.3,7.75,1.79c0.61,0.07,1.48,0.779,1.34,0.779
		c-0.61-0.039-1.82-0.83-3.55,0.711c1.02,0.029,1.73,1.689,3.39,0.739c4.3-1.22,5.89,0.91,6.58,1.46c-0.15,0.271-3.3-1.979-5.8-0.49
		c-1.33,0.791-3.46,0.08-5.13-1.18c0.68,1.73,3.55,3.67,4.5,3.67c1.17,0,2.66-1.52,4.35-1.439c2.71,0.14,3.09,2.55,2.78,2.369
		c0,0-2.13-3.529-4.87,0.24c1.28-0.58,2.99-0.439,4.49,0.271c0.2,0.09-0.36,0.729-0.77,1.19c-0.26,0.299-1.4,1.989-2.64,0.319
		c-0.19-0.25-0.77-1.79-4.64-1.46c1.46,0.66,3.07,2.391,3.87,3.17c2.02,2,5.08-2.439,5.2-1.939c0,1,0.51,1.479,0.78,2.02
		c0.68,1.359-0.86,1.13-1.7,0.78c0,0,1.6,2.489,2.94,1.1c1.48-1.53-1.94-2.69-0.86-3.909c0.61-0.69,2.76,1.539,3.73,1.539
		c2.63,0.301,2.49-2.199,3.87-2.13c-1.3-1.319-2.69-0.6-2.98-0.26c-0.87,1.021-1.89,0.34-2.59-0.21c-0.39-0.51-1.03-0.58-1.6-0.43
		c-0.27,0.029,0.55-0.961,1.62-0.75c2.42,0.459,4.84-0.4,5.43-0.74c0.97-0.54,1.52-1.471,2.61-2.5c-0.34,0.07-2.35,1.18-2.99,1.5
		c-1.94,0.97-3.15-0.29-3.37-0.29c-0.37,0.01-0.28-0.28,0.3-0.46c1.99-0.44,3.36-2.19,5.25-2.891
		C26.44,32.337,29.1,32.967,30.86,31.227L30.86,31.227z M26.91,28.606c-0.06,0.41-0.06,0.74-0.19,1.2
		c-0.01,0.04,0.47,0.24,0.68,0.42c0.31-0.29,0.58-0.43,0.9-0.829c-0.07-0.041-1.35-1.15-1.35-1.101
		C26.95,28.457,26.95,28.427,26.91,28.606L26.91,28.606z M27.11,30.507c0,0-0.49-0.37-0.52-0.3c-0.08,0.21-0.19,0.46-0.33,0.739
		C26.14,31.207,26.53,31.017,27.11,30.507L27.11,30.507z M32.88,25.497c-0.12-4.55-2.91-9.61-2.15-8.67
		c1.9,2.35,2.51,7.45,3.81,11.831c0,0,0.84,0.42,0.66-5.141c-0.04-1.13-0.5-2.63-1.06-3.68c-1.11-2.06-3.34-5.55-3.28-5.58
		c0.54-0.44,1.85,2.57,3,3.75c0.74,0.77,2.8,1.51,2.94,1.42c-1.65-3.21-5.65-6.22-5.24-6.59c2.94,2.76,3.88,2.89,3.99,2.75
		l-2.65-2.57c-0.74-1.01-1.74-1.78-1.6-1.74c1.18,0.26-0.62-0.98-2.01-1.36c-0.25-0.07-0.65-0.09-0.67-0.21
		c-0.03-0.21,0.33-0.13,0.62-0.21c0.19-0.061,0.38-0.2,0.39-0.47c-0.53,0.12-1.07-0.01-1.53-0.21c-0.94-0.44-2.61-0.94-3.39-0.63
		c-0.46,0.18-0.54,0.15-1.02,0.521c-0.21-0.09-0.8-0.46-1.64,0.54c-0.25,0.31-0.57,0.68-0.58,0.95c-0.03,0.68,0.02,0.03,0.18,0.68
		c0.07,0.27-0.24,0.76-1.47,1.18c-0.47,0.16-0.35,0.63-0.35,0.63c0.24-0.11,0.61-0.38,1.18-0.11c1.13,0.52,1.35-0.3,2.05-0.9
		c0,0-0.19,0.75,0,0.79c0.88,0.18,0.58,0.84,0.47,0.94c-1.11,0.99-0.64,1.35-1.04,1.96c-0.37,0.58-0.95,0.8-1.8,0.76
		c-1.18-0.03,1.54-1.82-1.06-2.56c0.41,0.68,0.58,1.24-0.34,1.76c-0.57,0.34-0.28,2.03-1.75,1.24c0,0-0.12,1.25-0.29,1.31
		c2,1.75,0.88,2.71,0.98,5.21c0.63,1.59-0.06,2.35-0.22,2.439c0.1,1.08,0.2,1.67,0.87,2.551c0.49,0.63-0.04,1.619,0.46,2.289
		c0.46-1.619,0.95-0.949,1.08-3.209c0.19-0.381,0.94-1.051,1.37-1.09c-0.01,1.359,0.5,2.6,0.39,3.17c0,0,1.15-0.211,1.51-0.08
		c0.28,0.09,0.5,0.459,0.51,0.689c-0.39,0.25-0.39,0.15-0.98,0.58c-1.03,0.75-1.51,2.28-1.51,2.28s2.43-1.94,2.6-2.28
		c0.13-0.279,0.27-0.7,0.4-1.141c0.02-0.049-1.25-0.789-1.6-1.449c-1.08-2.11,1.67,1.24,1.74,0.96c0.16-0.729,0.67-1.41,0.67-1.41
		c-0.18-0.2-0.61-0.34-1.27-1.5c-1.51-2.66,1.75,1.13,1.75,1.13c0.86-0.49,0.87,0.17,0.98,0.87c0.01,0.07,1.47,1.14,1.54,1.21
		c0.41-0.38,0.71-0.9,0.88-1.26c0.03-0.051-2.63-2.4-3.09-3.18c-3.66-6.28,2.96,2.78,3.27,2.54c0.18-0.489,0.24-1.17,0.22-2.08
		c0-0.02-1.24-0.88-2.05-2.2c-3.08-5.07,2.02,1.51,2.01,1.46c-0.06-1.09-0.95-5.8-0.34-4.39c0.31,0.73,1.3,3.74,1.12,6.81
		C30.92,26.207,32.35,25.637,32.88,25.497L32.88,25.497z M34.88-4.753c0.03,0.189,0.04,0.31,0.06,0.4
		C34.93-4.433,34.91-4.563,34.88-4.753c0,0-0.08-1.7-1.9-1.7c-0.59,0-1.31,0.72-3.16-0.08v2.88c0.75,0.22,2.79-0.95,3.61-1.3
		C34.02-5.203,34.84-5.033,34.88-4.753L34.88-4.753z M29.77-0.573v2.88c0,0,1.61-0.01,3.39-1.16c0.53-0.35,1.33-0.2,1.72,0.11l0,0
		c0,0-0.24-1.89-1.84-1.65C30.11,0.027,29.77-0.573,29.77-0.573L29.77-0.573z M18.79,3.987c1.53,0,7.55,1.65,10.44,1.46v-15.13
		c0,0-4.26,0.6-7.96-0.76c-3.01-1.12-7.16,0.83-7.16,0.83c0,0.52,0,14.83,0,14.83S15.64,3.987,18.79,3.987L18.79,3.987z
		 M15.54-0.983c0.14,0.02,0.58,0.03,0.74,0.03c-0.02,0.32-0.02,2.56,0,2.8c0.02,0.23,0.22,0.3,0.42,0.21
		c0.1-0.04,0.19,0.03,0.06,0.13c-0.22,0.16-0.49,0.55-0.61,0.7c-0.25-0.17-0.53-0.39-0.51-0.6C15.66,1.927,15.54-0.693,15.54-0.983
		L15.54-0.983z M16.32-4.263c0.44-0.24,1.43-0.39,1.77-0.29c0.17,0.05,0.35,0,0.35-0.08c0-0.12,0.16-0.09,0.16,0
		c0,0.08,0,1.17-0.02,1.27c0,0.1-0.15,0.09-0.15,0c0-0.15,0-0.2-0.14-0.42c-0.4-0.59-1.48-0.64-2.02,0.07
		c-0.19,0.24-0.25,0.66-0.05,0.73c0.2,0.07,0.98,0.01,1.23-0.04c0.25-0.04,0.87-0.15,0.95-0.2c0.08-0.04,0.17-0.1,0.17,0.03
		s0,0.53-0.01,0.66c0,0.13-0.1,0.07-0.16,0.02c-0.08-0.04-0.66-0.1-0.91-0.12c-0.42-0.03-1.07-0.17-1.27-0.1
		c-0.21,0.06-0.04,0.39,0.13,0.63c0.53,0.72,1.53,0.75,1.93,0.15c0.14-0.21,0.14-0.25,0.14-0.41c0-0.09,0.16-0.11,0.16,0
		c0,0.1-0.01,0.99-0.01,1.08s-0.17,0.11-0.17,0c0.01-0.19-0.11-0.18-0.33-0.11c-0.58,0.15-1.35,0.2-1.81-0.05
		c-0.48-0.28-0.9-0.37-0.92-1.44C15.33-3.523,15.93-4.043,16.32-4.263L16.32-4.263z M19.5-8.873c-0.26,0.08-0.45,0.34-0.51,0.6
		c-0.05,0.271-0.94,2.83-1.04,3c-0.21-0.8-1.1-2.71-1.38-3.11c-0.25-0.35-0.47-0.29-0.7-0.3c-0.22,0-0.14-0.2,0.04-0.19
		c0.25,0.03,1.64,0.15,2.04,0.21c0.14,0.02,0.14,0.16-0.04,0.21c-0.09,0.02-0.32,0.14-0.32,0.25c0,0.15,0.51,1.27,0.64,1.48
		c0.12-0.29,0.6-1.51,0.5-1.78c-0.1-0.271-0.14-0.311-0.34-0.33c-0.2-0.03-0.2-0.14,0.04-0.18c0.24-0.04,0.9-0.09,1.1-0.07
		C19.73-9.053,19.76-8.943,19.5-8.873L19.5-8.873z M21-8.833l-0.26,0.23h-0.22l-0.22-0.21l-0.01-0.42l0.35-0.3l0.35,0.35v0.35H21z
		 M21.6-5.873l-0.46,0.61h-0.43c-0.21-0.22-0.36-0.38-0.4-0.56l-0.03-1.46l-0.55-0.31c-0.1,0.13-0.3,0.13-0.22,0.02l0.74-0.66
		l0.16-0.02l0.47,0.47l-0.01,1.5C21.13-5.993,21.26-5.933,21.6-5.873L21.6-5.873z M24.24-7.603c-0.11,0-1.24,0.13-1.24,0.13
		c-0.06,0.03,0.06,1.43,0.1,1.54c0.03,0.12,0.14,0.29,0.27,0.18c0.12-0.11,0.25,0.08,0.11,0.189c-0.08,0.061-0.33,0.561-0.44,0.63
		c-0.18,0.11-0.44-0.25-0.52-0.48c-0.14-0.38-0.23-1.34-0.23-1.97c0.04,0.01-0.52-0.23-0.27-0.32c0.5-0.21,0.97-0.87,1.03-1.04
		s0.22-0.1,0.14,0.07c-0.15,0.34-0.14,0.58-0.07,0.8c0.02,0.05,0.98,0.03,1.12,0.03C24.33-7.843,24.32-7.603,24.24-7.603
		L24.24-7.603z M22.94-2.783c-0.09,0.49,0.33,0.89,0.65,1.06c0.26,0.14,0.7,0.06,0.82,0.04c0.11-0.02,0.08-0.05,0.16-0.13
		c0.08-0.08,0.18-0.01,0.11,0.07c-0.08,0.08-0.73,0.7-0.91,0.82c-0.17,0.04-0.53,0.03-0.75-0.25c-0.39-0.48-0.67-0.66-0.55-1.55
		c0.08-0.6,1.08-1.12,1.32-1.25c0.09,0.08,0.55,0.57,0.74,0.73c-0.08,0.1-0.33,0.21-0.58,0.21s-0.42-0.2-0.58-0.39
		C23.27-3.283,23.02-3.143,22.94-2.783L22.94-2.783z M26.94-5.163l-0.6,0.66c-0.18-0.13-0.28-0.26-0.33-0.48
		c-0.46,0.09-0.78,0.36-0.99,0.53c-0.2-0.17-0.48-0.63-0.48-0.95c-0.01-0.32,0.24-0.79,0.41-0.95c0.02,0.01,0.03,0.02,0.05,0.03
		c-0.1-0.06-0.2-0.12-0.27-0.18c-0.07-0.06-0.08-0.21,0-0.34c0.12-0.16,0.5-0.64,0.86-0.69c0.19-0.03,0.52,0.02,0.98,0.43
		c-0.06,0.07-0.06,1.4-0.06,1.53C26.67-5.373,26.94-5.163,26.94-5.163L26.94-5.163z M28.18-2.173c-0.19-0.01-0.4-0.04-0.51-0.08
		c-0.17-0.04-0.1-0.25,0.04-0.25s0.35,0.04,0.47,0.08C28.28-2.363,28.32-2.153,28.18-2.173L28.18-2.173z M28.18-1.703
		c-0.2-0.02-0.4-0.04-0.51-0.08c-0.17-0.05-0.1-0.24,0.04-0.24c0.13,0,0.35,0.04,0.46,0.08C28.26-1.893,28.3-1.683,28.18-1.703
		L28.18-1.703z M25.02,1.087c0.2-0.11,0.68-0.55,0.84-0.66c0.27,0.21,0.46,0.42,0.59,0.57c0.18-0.09,0.46-0.3,0.6-0.41
		c0.24,0.17,0.51,0.39,0.61,0.51c0.13-0.12,0.29-0.03,0.14,0.12c-0.14,0.13-0.46,0.41-0.57,0.5c-0.18-0.09-0.48-0.44-0.58-0.52
		c-0.05,0.04-0.15,0.09-0.24,0.14c0,0.19,0,1.76-0.01,1.95c-0.25,0.02-0.47,0.03-0.64-0.01c-0.02-0.25,0.01-1.61,0-1.83
		C25.74,1.187,25.31,1.097,25.02,1.087L25.02,1.087z M24.92-1.933c0.03-0.79,0.54-1.45,1.39-1.74c0.66,0.22,0.94,0.89,0.96,1.35
		c0.02,0.36-0.23,0.85-0.39,1.15c-0.26,0.17-0.52,0.42-0.77,0.66C25.29-0.533,24.9-1.473,24.92-1.933L24.92-1.933z M21.81,0.637
		c0.25-0.27,0.5-0.44,0.65-0.59c0.25,0.19,0.34,0.3,0.47,0.52c-0.01,0.35-0.08,1.07-0.05,1.32c0.02,0.25,0.99,0.42,1.04,0.05
		c0.04-0.36,0.01-0.83,0-1.04c-0.02-0.17-0.41-0.25-0.6-0.22c0.26-0.28,0.49-0.48,0.65-0.63c0.24,0.18,0.46,0.43,0.61,0.64
		c-0.01,0.36-0.07,1.23-0.02,1.46c0.07,0.24,0.04,0.25,0.22,0.37c-0.18,0.17-0.31,0.25-0.44,0.38c-0.19-0.05-0.5-0.33-0.47-0.57
		c-0.23,0.15-0.89,0.43-1.13,0.49c-0.24-0.25-0.42-0.31-0.44-0.62s0.07-1.11-0.03-1.3C22.17,0.697,22,0.657,21.81,0.637L21.81,0.637
		z M21.25-1.573c-0.24-0.13-0.57-0.45-0.74-0.71c-0.32,0.41-0.4,0.76-0.98,0.91c0.34-0.29,0.65-0.91,0.63-1.51
		c-0.03-0.54-0.32-0.8-0.58-0.91c-0.22,0.1-0.41,0.25-0.53,0.3c-0.13,0.05-0.15-0.14-0.07-0.19c0.29-0.14,0.91-0.62,1-0.71
		c0.26,0.05,0.59,0.28,0.64,0.49c0.2-0.12,0.56-0.51,0.66-0.6c0.12,0.21,0.48,0.47,0.88,0.62c-0.36,0.63-1.18,0.25-1.29,0.09
		c-0.13,0.22-0.16,0.35-0.03,0.63c0.17,0.37,0.83,0.72,1.18,0.81C21.89-2.213,21.42-1.673,21.25-1.573L21.25-1.573z M20.31,0.317
		c0.03,0.01-0.52-0.21-0.28-0.33c0.42-0.21,0.83-0.64,0.9-0.82c0.07-0.17,0.22-0.09,0.14,0.08c-0.09,0.17-0.14,0.59-0.09,0.72
		c0.02,0.06,0.34,0.08,0.48,0.08c0.08,0,0.08,0.25-0.01,0.25c-0.1-0.01-0.5,0.01-0.5,0.01c-0.06,0.02-0.02,1.4,0.02,1.52
		c0.04,0.11,0.37,0.19,0.49,0.08s0.25,0.01,0.1,0.11c-0.08,0.07-0.32,0.46-0.52,0.53c-0.2,0.08-0.51-0.05-0.64-0.25
		C20.17,1.987,20.3,0.957,20.31,0.317L20.31,0.317z M19.04,2.547c-0.2-0.15-0.38-0.19-0.44-0.44c-0.52,0.2-0.73,0.51-1.04,0.73
		c-0.19-0.17-0.34-0.48-0.35-0.8c-0.01-0.31,0.3-0.74,0.47-0.9c-0.03-0.02-0.03-0.03-0.06-0.04c-0.07-0.06-0.17-0.52-0.08-0.64
		c0.12-0.17,0.58-0.81,0.96-0.84c0.25-0.02,0.45,0.29,0.67,0.52c-0.05,0.06-0.03,1.19-0.03,1.32c0.24,0.25,0.33,0.31,0.47,0.21
		c0.14-0.09,0.19,0,0.1,0.09C19.61,1.867,19.16,2.417,19.04,2.547L19.04,2.547z M18.57,1.177c0-0.24,0-0.47-0.02-0.58
		c0.02-0.18-0.35-0.43-0.45-0.43c-0.11,0-0.19,0.04-0.32,0.25c-0.07,0.11-0.05,0.53,0.01,0.57C18.09,1.247,18.29,1.217,18.57,1.177
		L18.57,1.177z M17.94,1.337c-0.28,0.53-0.05,0.64,0.11,0.78c0.19-0.1,0.37-0.19,0.52-0.29c0-0.09,0.01-0.28,0.01-0.48
		C18.25,1.377,18.15,1.447,17.94,1.337L17.94,1.337z M25.51-1.853c0.13,0.34,0.69,0.78,0.85,0.85c0.24-0.29,0.36-0.8,0.31-1.24
		c-0.04-0.34-0.47-0.71-0.85-0.84C25.33-2.813,25.33-2.303,25.51-1.853L25.51-1.853z M25.49-4.983c0.19-0.09,0.33-0.14,0.49-0.14
		c-0.01-0.08-0.02-0.15-0.02-0.25c0-0.08,0.01-0.28,0.01-0.51c-0.26-0.08-0.6-0.23-0.89-0.39c0.04,0.03,0.08,0.05,0.13,0.08
		C24.9-5.623,25.32-5.123,25.49-4.983L25.49-4.983z M24.88-6.583c0.21,0.18,0.8,0.46,1.1,0.56c0-0.25,0-0.5-0.03-0.62
		c0.02-0.17-0.58-0.49-0.67-0.49c-0.11-0.01-0.26,0.17-0.4,0.37C24.82-6.663,24.83-6.623,24.88-6.583L24.88-6.583z M13.57,7.117
		c-0.47,0.05-1.06,0.34-1.2,0.84c-0.29,0.29-0.28-0.48-0.86-0.14c-0.25,0.34,0.41,1.09,0.24,1.14c-0.64,0.19-0.57-0.96-0.93-0.99
		c-0.52,0.19-1.85,1.4-0.55,2.36c-0.04-0.65,1.19-1.35,1.6,0.08c1.23-0.09,1.65,0.65,1.8,1.08c1.82,0.32,1.29,1.53,1.24,1.53
		c-0.18-0.26-0.96-1.46-2.23-0.63c-0.3,0.2-0.81,0.38-1.07,0.13c0.03,0.41,0.53,0.77,0.88,0.67c1.13-0.31,1.42,0.75,0.55,1.04
		c0.19,0.29,0.54,0.271,0.87,0.07c0.49-0.3,0.55-0.57,0.73-0.74c0.31,1.48-1.56,1.62-2.17,1.72c0.09,0.31,0.3,0.38,0.67,0.5
		c-1.98,0.07-2.37,1.92-2.25,2.99c0.45,0.03,1.13-0.94,1.07-0.38c-1.4,1.49-1.88,3.48-1.13,4.75c0.36-0.14,0.46-0.53,0.58-0.85
		c0.05-0.03,0.77,0.29-0.38,1.67c-0.08,0.36-0.48,1.44,0.41,1.7c0.34-0.4,0.29-0.74,0.36-1.16c0.25-0.1,0.43,0.74,0.33,0.979
		c-1.16,0.48-1.02,4.03,0.33,5.931c-0.62-1.391-0.54-3.16,0-4.58c0.41-1.101,1.32-3.561,1.34-3.53c0.52,0.63,1.17,3.351,1.17,4.47
		c0.73-0.63,0.86-1.32,1.46-1.779c0.28,0.989,0.4,1.64,0.62,2.51c0.29-0.85,1.05-1.811-0.04-4.57c0.22-0.2,0.63,0.96,0.76,0.9
		c0.1-0.04,0.24-0.62-0.13-1.7c-0.76-0.71-0.93-1.76-0.81-1.84c0.1-0.06,0.44,1.08,0.85,1.14c0.08-0.89,0.3-1.8,0.23-2.5
		c-0.02-0.18-0.31-1.1-1.16-1.86c-0.49-0.44-0.68-1.36-0.63-1.55c0.47,0.43,0.37,0.75,0.77,0.93c0.17-0.37,0.05-1.76-0.43-2.37
		c-0.28-0.46-0.14-0.4,0.19-0.12c0.43,0.52,0.23,0.47,0.6,0.69c0.82-1.94,0.08-2.32,0.14-2.45c0.05-0.13,0.63,0.91,1.13,0.51
		c-0.81-0.43-0.79-1.08-0.88-1.78c-0.07-0.56-0.43-0.76-0.29-0.9c0.8,0.61,1.03-0.07,1.06-0.2c-0.15,0.08-0.87,0.19-0.96-0.93
		c-0.03-0.44-0.71-0.63-0.71-0.63c0.42-0.08,1.75-0.15,1.43-1.47c-0.16,0.31-0.56,0.8-1.39,0.61c0,0,0.53-0.14,0.43-0.72
		C15.94,8.397,14.91,6.937,13.57,7.117L13.57,7.117z M15.94,8.867c-0.85,0.16-1.48,1.09-2.44,0.69c-0.13-0.08-0.39-0.15-0.36-0.35
		c0.17,0.1,0.44,0.16,0.63,0.19c0,0-0.52-0.43-0.06-0.96c-0.58,0.36-0.79,0.26-0.79,0.08c0-0.08,0.76-0.64,1.48-0.37
		c0.52,0.19,0.96,0.59,1.53,0.68v0.04H15.94z M14.57,8.877c0,0.19-0.25,0.47-0.25,0.47l0.92-0.46c-0.19-0.12-0.7-0.41-0.92-0.47
		C14.32,8.417,14.57,8.617,14.57,8.877L14.57,8.877z M9.15,3.987c2.31,0.15,4.27,1.22,4.27,1.22v-14.87c0,0-3.39-2.38-8.9-0.25
		c-1.62,0.63-5.57,0.1-5.57,0.1v15.2C2.41,5.627,6.92,3.847,9.15,3.987L9.15,3.987z M7.5-4.013c0.44,0.14,1.1,0.03,1.31,0.63
		c0.22,0.62-0.19,1.42-0.69,1.46c-0.43,0.03-0.82-0.11-1.07-0.08c-0.11,0.01-0.19,0.04-0.21,0.17c-0.02,0.13-0.19,0.19-0.22,0.02
		c-0.03-0.17-0.09-0.87-0.09-1.07c0-0.2,0.19-0.23,0.23,0c0.03,0.22,0.1,0.38,0.27,0.57c0.14,0.15,0.98,0.35,1.3,0.11
		c0.25-0.2,0.19-0.64-0.07-0.81C8-3.193,6.95-3.433,6.77-3.733c-0.3-0.52,0.25-0.94,0.48-1.08c0.37-0.21,0.81-0.14,0.96-0.14
		c0.14,0,0.34,0.05,0.36-0.11c0.01-0.16,0.13-0.14,0.14,0.03c0.05,0.46,0.09,0.19,0.08,0.67c0,0.22-0.08,0.23-0.18,0.06
		c-0.06-0.11-0.71-0.65-1.24-0.32C6.92-4.373,7.09-4.123,7.5-4.013L7.5-4.013z M8.77-0.963c-0.19,0.18-0.35,0.36-0.51,0.54
		c-0.14-0.09-0.36-0.29-0.53-0.43c0.28-0.13,0.43-0.3,0.52-0.48C8.36-1.093,8.58-1.003,8.77-0.963L8.77-0.963z M5.94,0.187
		c0.24-0.17,0.63-0.91,0.69-1.07c0.05-0.17,0.15-0.11,0.13,0.07c-0.02,0.26-0.14,0.85-0.09,0.96c0.02,0.06,0.4,0.06,0.52,0.06
		c0.08,0,0.08,0.24,0.01,0.24c-0.1,0-0.52,0.06-0.52,0.06c-0.06,0.03-0.03,0.89,0.05,0.98c0.17,0.16,0.29,0.27,0.52,0.03
		c0.11-0.12,0.23-0.01,0.09,0.11c-0.07,0.07-0.38,0.45-0.46,0.63c-0.08,0.19-0.48,0.04-0.62-0.15c-0.21-0.31-0.12-0.95-0.14-1.57
		C6.18,0.547,5.75,0.337,5.94,0.187L5.94,0.187z M5.63-1.613c-0.15,0.13-0.48-0.08-0.61-0.28c-0.19-0.32-0.14-1.08-0.1-1.7
		c0.03,0-0.11-0.15-0.24-0.18c-0.16-0.04-0.2-0.1,0.06-0.2c0.31-0.12,0.79-0.86,0.85-1.03c0.06-0.16,0.15-0.01,0.06,0.15
		c-0.19,0.36-0.11,0.79-0.08,0.92c0.02,0.06,0.6-0.03,0.73-0.03c0.08,0.01,0.07,0.24,0,0.24c-0.1,0-0.86,0.09-0.86,0.09
		c-0.05,0.03,0.06,1.23,0.14,1.32c0.01,0.021,0.25,0.22,0.34,0.14c0.12-0.11,0.23,0.01,0.09,0.12C5.94-1.993,5.81-1.753,5.63-1.613
		L5.63-1.613z M2.9,0.227c0.28-0.22,0.43-0.39,0.63-0.57c0.17,0.26,0.25,0.52,0.39,0.63c0.2-0.17,0.53-0.38,0.69-0.55
		c0.14,0.08,0.41,0.23,0.42,0.75c0.01,0.52,0.08,1.35,0.08,1.52c0,0.09,0.02,0.07,0.18,0.03c0.14-0.04,0.2,0.03,0.09,0.13
		c-0.11,0.09-0.62,0.45-0.76,0.6c-0.19-0.34-0.21-0.58-0.14-0.91c0.06-0.28,0.01-1.02,0.01-1.19s-0.25-0.23-0.36-0.32
		c-0.15,0.11-0.17,0.13-0.31,0.26c0,0.23-0.02,1.79,0.01,2c-0.36,0.02-0.31-0.01-0.52-0.01c-0.02-0.3-0.01-1.51-0.03-1.78
		C3.24,0.567,3.03,0.377,2.9,0.227L2.9,0.227z M0.54,1.077c0.15-1.02,1.14-1.44,1.44-1.64c0.05,0.3,0.4,0.811,0.62,1.021
		c-0.34,0.28-1.11,0.92-1.4,1.14c0.16,0.3,0.78,0.51,0.98,0.29c0.15-0.15,0.34-0.1,0.17,0.1c-0.22,0.25-0.45,0.63-0.57,0.85
		C1.33,2.647,0.4,2.057,0.54,1.077L0.54,1.077z M0.28-3.653c0.24-0.36,0.83-0.72,1.22-0.86c0.13,0.14,0.27,0.37,0.46,0.62
		c-0.19,0.14-0.37,0.33-0.48,0.47c-0.08-0.09-0.56-0.8-0.89-0.31c-0.18,0.26-0.37,1.03,0.25,1.51c0.3,0.23,0.62,0.3,1.02,0.24
		c-0.21,0.27-0.26,0.36-0.38,0.58c-0.59,0.11-0.84-0.08-1.12-0.33C-0.27-2.233-0.08-3.103,0.28-3.653L0.28-3.653z M2.96-5.003
		c-0.1-0.15-0.13-0.29-0.34-0.23c-0.53,0.15-1.13,0.31-1.55,0.07c-0.46-0.28-0.85-0.36-0.85-1.4c-0.01-0.63,0.55-1.13,0.91-1.34
		c0.41-0.24,1.12-0.08,1.44,0.01c0.15,0.05,0.27,0.03,0.28-0.17c0-0.11,0.18-0.08,0.17,0c0,0.09-0.01,1.36-0.01,1.46
		s-0.21,0.11-0.2,0.02c0-0.14-0.05-0.42-0.1-0.64c-0.07-0.34-0.95-0.95-1.58-0.13c-0.02,0.04-0.27,0.47-0.24,0.81
		c0.03,0.25,0.06,0.61,0.23,0.84c0.5,0.7,1.2,0.46,1.57-0.1c0.14-0.21,0.11-0.47,0.12-0.61c0-0.09,0.2-0.1,0.2,0
		c0,0.1-0.01,0.95-0.01,1.03c0,0.13,0.09,0.22,0.14,0.28C3.27-4.923,3.13-4.773,2.96-5.003L2.96-5.003z M3.42-4.263
		c0.23-0.02,0.43,0.45,0.63,0.68C4-3.523,4-2.123,4-1.993c0.05,0.08,0.21,0.18,0.28,0.11c0.11-0.11,0.19,0,0.09,0.09
		c-0.09,0.09-0.55,0.479-0.66,0.61c-0.16-0.12-0.22-0.3-0.24-0.54c-0.28,0.07-0.54,0.22-0.71,0.47c-0.31-0.14-0.56-0.41-0.57-0.72
		s0.21-0.5,0.44-0.71c-0.04-0.03-0.08-0.06-0.12-0.1c-0.07-0.06-0.15-0.57-0.09-0.7C2.57-3.823,3.07-4.233,3.42-4.263L3.42-4.263z
		 M5.95-7.693c-0.13,0.14-0.43,0.32-0.56,0.41c-0.15-0.09-0.35-0.37-0.44-0.45c-0.04,0.04-0.14,0.09-0.22,0.14
		c0,0.19,0.01,1.84-0.01,2.03c-0.24,0.01-0.43,0.03-0.6-0.01c-0.02-0.25,0.02-1.56,0.01-1.78c-0.02-0.26-0.25-0.28-0.56-0.37
		c0.18-0.21,0.5-0.45,0.64-0.56c0.26,0.2,0.42,0.2,0.56,0.36c0.17-0.09,0.47-0.28,0.6-0.38c0.13,0.14,0.36,0.38,0.45,0.49
		C5.94-7.923,6.09-7.823,5.95-7.693L5.95-7.693z M8.36-6.073c-0.15,0.08-0.46,0.39-0.69,0.39c-0.73-0.03-1.65-0.56-1.51-1.54
		c0.15-1.01,0.95-1.41,1.29-1.42c0.4,0.02,0.48,0.37,0.71,0.58c-0.34,0.28-0.89,0.82-1.21,1.15c0.08,0.17,0.46,0.81,1.26,0.62
		C8.57-6.393,8.68-6.233,8.36-6.073L8.36-6.073z M11.26-7.853c-0.08,0.09-0.38,0.34-0.72,0.61c0.05,0.01,0.1,0.02,0.16,0.05
		c0.55,0.32,0.74,0.79,0.2,1.22c-0.3,0.24-0.79,0.51-1.31,0.52c-0.35,0.01-0.96-0.28-1.07-0.41c0.28-0.26,0.58-0.55,0.8-0.75
		c-0.35-0.26-0.67-0.62-0.41-1.02c0.19-0.3,0.8-0.8,1.35-0.77C10.79-8.373,11.03-8.003,11.26-7.853L11.26-7.853z M11.59-5.053
		l0.33,0.34v0.36l-0.25,0.22h-0.2l-0.2-0.21l-0.01-0.41L11.59-5.053L11.59-5.053z M12.21-6.703c-0.76,0.03-0.57-0.32-0.44-0.31
		C12.42-6.983,12.33-6.713,12.21-6.703L12.21-6.703z M12.2-6.243c-0.76-0.08-0.57-0.32-0.43-0.31
		C12.48-6.513,12.32-6.243,12.2-6.243L12.2-6.243z M12.54-1.743l-0.28,0.3l-0.36,0.3c-0.2-0.21-0.35-0.26-0.38-0.43l-0.01-1.38
		l-0.33-0.2c-0.19,0.17-0.35,0.1-0.17-0.06l0.63-0.58l0.15-0.02l0.28,0.41l-0.01,1.46C12.23-1.783,12.23-1.803,12.54-1.743
		L12.54-1.743z M9.7,1.827c0-0.33,0.17-0.59,0.4-0.82c-0.02-0.02-0.02-0.03-0.04-0.03c-0.07-0.05-0.18-0.63-0.09-0.75
		c0.11-0.16,0.62-0.65,0.96-0.68c0.24-0.03,0.58,0.48,0.79,0.71c-0.06,0.07,0.07,1.47,0.07,1.6c0.07,0.12,0.31,0.19,0.39,0.09
		c0.09-0.12,0.19,0.01,0.09,0.1c-0.09,0.08-0.44,0.37-0.55,0.5c-0.16-0.13-0.42-0.26-0.59-0.47c-0.35,0.07-0.71,0.32-0.99,0.52
		C9.82,2.447,9.72,2.137,9.7,1.827L9.7,1.827z M9.18-2.343c-0.21-0.59,0.18-1.14,0.36-1.3c0.15-0.13,0.5-0.42,0.73-0.57
		c0.22,0.14,0.39,0.23,0.5,0.28c-0.04,0.11-0.08,0.32-0.32,0.34c-0.36,0.01-0.63-0.09-0.82,0.12c-0.19,0.2-0.04,0.78,0.19,1.01
		c0.18,0.17,0.66,0.39,0.75,0.19c0.12-0.26,0.29-0.13,0.12,0.1c-0.11,0.14-0.32,0.46-0.43,0.67C9.9-1.543,9.4-1.733,9.18-2.343
		L9.18-2.343z M9.33,1.757l-0.28,0.3l-0.26,0.27c-0.2-0.21-0.36-0.25-0.39-0.42l-0.01-1.34l-0.41-0.22
		c-0.19,0.16-0.35,0.09-0.18-0.05l0.63-0.59l0.15-0.021l0.41,0.59L9,1.547C9.16,1.697,9.01,1.697,9.33,1.757L9.33,1.757z
		 M10.32,1.167c-0.45,0.37,0.06,0.72,0.2,0.84c0.15-0.08,0.35-0.11,0.5-0.16c-0.02-0.06-0.05-0.12-0.05-0.19s0.01-0.21,0.03-0.38
		C10.69,1.307,10.55,1.327,10.32,1.167L10.32,1.167z M10.99,1.127c0.02-0.22,0.02-0.45,0-0.57c0.02-0.17-0.49-0.48-0.58-0.48
		c-0.11,0-0.11,0.06-0.23,0.25c-0.06,0.1-0.01,0.42,0.04,0.47C10.52,1.047,10.74,1.127,10.99,1.127L10.99,1.127z M10.12-7.223
		c0.15-0.12,0.29-0.23,0.34-0.27c-0.22-0.2-0.59-0.41-0.76-0.43c-0.17-0.02-0.5,0.13-0.37,0.3c0.13,0.17,0.26,0.37,0.53,0.42
		C9.94-7.193,10.03-7.213,10.12-7.223L10.12-7.223z M9.88-6.723c-0.25,0.2-0.46,0.37-0.58,0.47c0.08,0.17,0.66,0.58,0.98,0.439
		c0.31-0.14,0.47-0.46,0.18-0.63C10.24-6.563,10.05-6.643,9.88-6.723L9.88-6.723z M6.88-7.113c0.14-0.11,0.5-0.52,0.73-0.74
		c-0.13-0.08-0.36-0.24-0.46-0.47C6.76-7.993,6.68-7.763,6.88-7.113L6.88-7.113z M3.45-1.933c0-0.07,0-0.14,0-0.21
		c0-0.08,0-0.3,0-0.52c-0.26,0.16-0.36,0.29-0.63,0.13c-0.44,0.36,0.23,0.58,0.37,0.7C3.29-1.893,3.37-1.913,3.45-1.933L3.45-1.933z
		 M3.45-2.843c-0.01-0.18-0.01-0.35-0.03-0.44c0.03-0.17-0.29-0.55-0.38-0.55c-0.1,0-0.31,0.19-0.43,0.38
		c-0.06,0.11-0.08,0.4,0.06,0.56C2.93-2.603,3.06-2.593,3.45-2.843L3.45-2.843z M1.49,0.017c-0.85,0.52-0.69,1.09-0.41,1.44
		c0.15-0.11,0.69-0.47,0.92-0.7C1.87,0.677,1.58,0.237,1.49,0.017L1.49,0.017z M-3.62,2.027h1.88v-1.84h-1.88V2.027L-3.62,2.027z
		 M-3.62-4.403h1.88v-1.84h-1.88V-4.403L-3.62-4.403z M-5.83-0.663c-2.2,0-2.2,3.23,0,3.23C-3.7,2.557-3.72-0.663-5.83-0.663
		L-5.83-0.663z M-5.83-7.113c-2.11,0-2.16,3.23,0,3.23C-3.72-3.883-3.72-7.113-5.83-7.113L-5.83-7.113z M13.11,11.757
		c-0.13-0.28-0.34-0.55-0.64-0.69c-1.26-0.6-3.67,0.69-3.65-1.19c0,0-0.86,0.64-0.46,1.31C9.25,12.717,11.75,10.827,13.11,11.757
		L13.11,11.757z M1.81,27.106c-0.7,0.7-0.95,0.721-0.91,1.021c0.16,0.43,0.47,0.729,0.79,1.1c0.42,0.341,0.57,0.64,0.26-0.35
		C1.77,28.227,1.82,27.747,1.81,27.106L1.81,27.106z M-3.06,13.797l0.03,0.03c-0.01,1.45-4.08,3.53-5.83,4.47
		c2.7,0.93,5.25-1.57,4.95-0.96c-0.36,0.71-3.66,3.55-5.09,5.08c1.12,0.31,2.15-0.59,2.96-1.29c0.89-0.75,2.37-2.65,2.14-1.71
		c-2.4,2.96-4.29,9.09-3.13,9.49c0.67-1.391,3.42-8.48,3.6-8.45c0.19,0.03-0.22,1.87-0.28,3.09c-0.13,2.67-0.15,3.94,0.42,6.569
		c0.3-0.409,0.58-0.399,1.06-0.359c0.06-0.25,0.04-0.189-0.25-0.58c-0.76-1.02,0.12-2.391-0.25-3.24c-0.3-0.699-0.48-0.14-0.62-0.87
		c0.21-0.2,0.79-0.25,1.02-0.29c0.25-2.75,1.17-4.15,0.83-2.41c-0.18,0.88-0.44,2.33-0.31,2.38c0.13,0.04,0.13,0.04,0.24,0.1
		c0.05,0.02,4.61-7.48,2.08-2.28c-0.33,0.69-1.68,2.52-1.68,2.52c0.36,0.359,0.69,0.79,0.74,1.05c0.01,0.07,6.12-8.03,1.95-1.5
		c-0.25,0.4-1.5,1.729-1.82,2.12c-0.04,0.05,0.12,1.51,0.12,1.51c0.64-0.439,1.54-1.33,1.96-1.89c-0.06-0.83,0.13-0.72,0.19-1.53
		c0.19-0.13,0.45,0.22,0.75,0.5c0.14,0.13,4.19-6.91,1.65-1.63c-0.41,0.85-1.31,1.851-1.35,1.94c0.17,0.18,0.42,0.76,0.72,1.439
		c0.01,0.03,5.4-7.78,2.13-1.88c-0.26,0.46-1.89,2.42-1.86,2.47c0.4,0.971,0.75,1.93,0.75,1.93c-0.1-0.76-0.25-2.27,1.33-3.5
		c0.2,1.351,0.57,1.41,1.04,1.83c0.2,0.19,0.59,0.961,0.63,0.301c0.14-1.93-0.49-1.881-0.96-2.7c-0.11-0.19-0.09-0.63,0-0.61
		c3.88,0.12,3.76,3.76,4.41,3.76c-0.3-0.93-0.37-1.84-0.03-2.59c-1.04-0.729-0.78-2-0.58-2.55c-1.17-1.21-0.5-3.78,0.06-4.33
		c-0.75-1.09,0.18-1.84-0.03-2.51c-0.32-2.38-2.44-1.67-2.91-3.93c-0.33,0.41-0.94,1.78-0.66,2.22c0.33,0.52,1.04,0.57,1.08,0.95
		c0.02,0.16,0.07,0.62-0.05,0.71c-0.4,0.08-0.68-0.3-1.08-0.46c-0.82-0.32-2.82,1.04-2.94-0.17c-0.08-0.76,0.26-0.21,0.22-0.91
		c-0.03-0.73-0.4-0.21-0.41-1.15c0-0.69,0.82-0.9,0.88-1.18c0.14-0.68,1.38,1,2.1-0.78c-0.42,0.06-1.27-0.24-1.19-0.65
		c0.21-1.12,0.24-3.81-2.28-3.22c-0.91,0.21-3.42,1.53-3.77,0.09c-0.9,1.61,0.89,1.33,1.43,1.29c-0.21,0.15-0.48,0.39-1.15,0.25
		c-1.42,0.93-6.6,4.23-8.1,5.05C-6.2,15.747-3.11,13.797-3.06,13.797L-3.06,13.797z M-1.58,31.757c-0.49-0.2-1.02-0.34-1.47-0.65
		c0.32,1.07,0.55,2,1.14,3.131C-1.57,34.887-0.98,33.327-1.58,31.757L-1.58,31.757z"/>
</g>
</svg>
